<svg xmlns="http://www.w3.org/2000/svg" width="74" height="57" viewBox="0 0 74 57">
  <defs>
    <style>
      .cls-1 {
        fill: #0053a9;
        fill-rule: evenodd;
      }
    </style>
  </defs>
  <path id="ico-chat.svg" class="cls-1" d="M5476,3725a20.991,20.991,0,0,1,7.78,40.49l-2.74,1.1,0.24,2.95,0.16,1.87-8.5-4.03-0.82-.38H5452a21,21,0,0,1,0-42h24m0-4h-24a25,25,0,0,0,0,50h19.22l14.78,7-0.73-8.8A24.989,24.989,0,0,0,5476,3721Zm-25,21a4,4,0,1,0,4,4A4,4,0,0,0,5451,3742Zm13,0a4,4,0,1,0,4,4A4,4,0,0,0,5464,3742Zm13,0a4,4,0,1,0,4,4A4,4,0,0,0,5477,3742Z" transform="translate(-5427 -3721)"/>
</svg>
