<svg xmlns="http://www.w3.org/2000/svg" width="124" height="124">
  <circle data-name="楕円形 13" cx="62" cy="62" r="60" fill="#0054a5" stroke="#fff" stroke-width="4"/>
  <path d="M32.469 68.99V66.7h10.452v2.29H32.469zm10.452-6.97v2.26H32.469v-2.26h10.452zm0-4.69v2.26H32.469v-2.26h10.452zm-4.753-2.51c.352-.79.7-1.65 1.034-2.53l-3.168-.35a25.051 25.051 0 01-.6 2.88h-5.632v17.69h2.662v-1.1h10.452v1.08h2.794V54.82h-7.547zm17.423 3.06c-2.112.72-4.268 1.47-5.7 1.91l.9 2.14c1.563-.64 3.433-1.41 5.193-2.18zm9.263 8.69h-9.417v-1.28h9.417v1.28zm-9.417 3.23v-1.27h9.417v1.27h-9.417zm3.675-8.42a2.8 2.8 0 00.176-1.15v-7.28h-8.824v2.02h1.673l-1.1 1.32a12.447 12.447 0 012.8 2.01l1.3-1.68a13.263 13.263 0 00-2.442-1.65h4.246v5.24a.271.271 0 01-.33.31c-.242 0-1.1 0-1.848-.02a6.711 6.711 0 01.66 1.85 8.417 8.417 0 002.993-.29l.066-.02c-.132.39-.287.86-.463 1.27h-5.17v9.27h2.6v-.8h9.417v.8h2.729v-9.27H60.62a17.741 17.741 0 00.858-1.6zm10.121-8.43h-8.757v2.02h1.43l-1.034 1.3a14.094 14.094 0 012.75 1.92c-1.43.48-2.772.9-3.784 1.21l.88 1.96c1.628-.6 3.652-1.35 5.545-2.07l-.4-1.87c-.683.24-1.365.46-2.025.7l1.188-1.58a13.837 13.837 0 00-2.442-1.57h4.2v5.18c0 .24-.088.3-.374.33-.264 0-1.233 0-2.069-.05a7.952 7.952 0 01.7 1.98 8.161 8.161 0 003.213-.33c.748-.33.968-.86.968-1.91v-7.22zm17.313 8.8h-4.312V60.3h4.312v1.45zm2.531-5.19h-2.531v1.63h-4.312v-1.63h-2.421v1.63h-2.794v2.11h2.794v3.5h3.345v1.25h-5.413v6.82h2.53v-4.6h2.883v5.28h2.574v-5.28h3.015v2.05c0 .2-.088.26-.352.26a16.451 16.451 0 01-1.959-.02 9.012 9.012 0 01.7 2.27 8.42 8.42 0 003.191-.35c.814-.38.99-1.02.99-2.12v-4.31h-5.589V63.8h3.345v-3.5h3.3v-2.11h-3.3v-1.63zm-4.533-2.51V52h-2.728v2.05h-7.833v6.16c0 3.21-.132 7.79-1.959 10.91a9.764 9.764 0 012.135 1.43c2-3.38 2.332-8.8 2.332-12.34v-3.85h16.062v-2.31h-8.009z" fill="#fff" fill-rule="evenodd"/>
</svg>
