<svg id="img_1f_point005.svg" xmlns="http://www.w3.org/2000/svg" width="124" height="124" viewBox="0 0 124 124">
  <defs>
    <style>
      .cls-1 {
        fill: #0054a5;
        stroke: #fff;
        stroke-width: 4px;
      }

      .cls-2 {
        fill: #fff;
        fill-rule: evenodd;
      }
    </style>
  </defs>
  <circle id="楕円形_13" data-name="楕円形 13" class="cls-1" cx="62" cy="62" r="60"/>
  <path id="自習席" class="cls-2" d="M554.469,6950.99v-2.29h10.452v2.29H554.469Zm10.452-6.97v2.26H554.469v-2.26h10.452Zm0-4.69v2.26H554.469v-2.26h10.452Zm-4.753-2.51c0.352-.79.7-1.65,1.034-2.53l-3.168-.35a25.051,25.051,0,0,1-.6,2.88h-5.632v17.69h2.662v-1.1h10.452v1.08h2.794v-17.67h-7.547Zm17.423,3.06c-2.112.72-4.268,1.47-5.7,1.91l0.9,2.14c1.563-.64,3.433-1.41,5.193-2.18Zm9.263,8.69h-9.417v-1.28h9.417v1.28Zm-9.417,3.23v-1.27h9.417v1.27h-9.417Zm3.675-8.42a2.8,2.8,0,0,0,.176-1.15v-7.28h-8.824v2.02h1.673l-1.1,1.32a12.447,12.447,0,0,1,2.8,2.01l1.3-1.68a13.263,13.263,0,0,0-2.442-1.65h4.246v5.24a0.271,0.271,0,0,1-.33.31c-0.242,0-1.1,0-1.848-.02a6.711,6.711,0,0,1,.66,1.85,8.417,8.417,0,0,0,2.993-.29l0.066-.02c-0.132.39-.287,0.86-0.463,1.27h-5.17v9.27h2.6v-0.8h9.417v0.8h2.729v-9.27h-6.975a17.741,17.741,0,0,0,.858-1.6Zm10.121-8.43h-8.757v2.02h1.43l-1.034,1.3a14.094,14.094,0,0,1,2.75,1.92c-1.43.48-2.772,0.9-3.784,1.21l0.88,1.96c1.628-.6,3.652-1.35,5.545-2.07l-0.4-1.87c-0.683.24-1.365,0.46-2.025,0.7l1.188-1.58a13.837,13.837,0,0,0-2.442-1.57h4.2v5.18c0,0.24-.088.3-0.374,0.33-0.264,0-1.233,0-2.069-.05a7.952,7.952,0,0,1,.7,1.98,8.161,8.161,0,0,0,3.213-.33c0.748-.33.968-0.86,0.968-1.91v-7.22Zm17.313,8.8h-4.312v-1.45h4.312v1.45Zm2.531-5.19h-2.531v1.63h-4.312v-1.63h-2.421v1.63h-2.794v2.11h2.794v3.5h3.345v1.25h-5.413v6.82h2.53v-4.6h2.883v5.28h2.574v-5.28h3.015v2.05c0,0.2-.088.26-0.352,0.26a16.451,16.451,0,0,1-1.959-.02,9.012,9.012,0,0,1,.7,2.27,8.42,8.42,0,0,0,3.191-.35c0.814-.38.99-1.02,0.99-2.12v-4.31h-5.589v-1.25h3.345v-3.5h3.3v-2.11h-3.3v-1.63Zm-4.533-2.51V6934h-2.728v2.05h-7.833v6.16c0,3.21-.132,7.79-1.959,10.91a9.764,9.764,0,0,1,2.135,1.43c2-3.38,2.332-8.8,2.332-12.34v-3.85h16.062v-2.31h-8.009Z" transform="translate(-522 -6882)"/>
</svg>
