<svg id="img_1f_point006.svg" xmlns="http://www.w3.org/2000/svg" width="124" height="124" viewBox="0 0 124 124">
  <defs>
    <style>
      .cls-1 {
        fill: #0054a5;
        stroke: #fff;
        stroke-width: 4px;
      }

      .cls-2 {
        fill: #fff;
        fill-rule: evenodd;
      }
    </style>
  </defs>
  <circle id="楕円形_13" data-name="楕円形 13" class="cls-1" cx="62" cy="62" r="60"/>
  <path id="教室長席" class="cls-2" d="M617.669,7605.41a23.372,23.372,0,0,1-1.166,5.12,27.64,27.64,0,0,1-1.343-5.12h2.509Zm-8.406,2.59h-1.276c0.33-.35.638-0.72,0.946-1.1h2.619a10.65,10.65,0,0,1-1.056,1.59l-0.77-.62Zm-2.376-4.82H608.6c-0.308.51-.638,0.99-0.99,1.48h-0.726v-1.48Zm14.786,2.23v-2.42H615.82c0.308-1.17.573-2.38,0.793-3.61l-2.663-.4a26.425,26.425,0,0,1-2.024,7.17v-1.49H610.54a26.682,26.682,0,0,0,2.288-4.47l-2.42-.68a21.469,21.469,0,0,1-1.387,2.97v-1.5h-2.134v-2h-2.442v2h-2.487v2.2h2.487v1.48h-3.213v2.24h4.423c-0.4.38-.792,0.75-1.21,1.1h-1.408v1.06a19.6,19.6,0,0,1-2.311,1.34,17.169,17.169,0,0,1,1.761,2,22.5,22.5,0,0,0,3.41-2.37h1.562c-0.374.39-.77,0.77-1.144,1.1h-0.858v1.71c-1.65.14-3.169,0.25-4.4,0.33l0.264,2.34c1.211-.11,2.619-0.25,4.137-0.38V7617c0,0.24-.088.31-0.374,0.31-0.264.02-1.232,0.02-2.068,0a8.885,8.885,0,0,1,.748,2.22,8.145,8.145,0,0,0,3.168-.37c0.792-.38.99-0.97,0.99-2.09v-2.16c1.32-.11,2.663-0.22,3.983-0.35v-2.24c-1.32.11-2.663,0.24-3.983,0.33v-0.44a23.274,23.274,0,0,0,3.081-3.02,13.132,13.132,0,0,1,1.452,1.34,16.109,16.109,0,0,0,1.012-1.51,24.817,24.817,0,0,0,1.5,4.46,11.109,11.109,0,0,1-4.73,3.76,10.92,10.92,0,0,1,1.5,2.38,14.363,14.363,0,0,0,4.643-3.61,11.666,11.666,0,0,0,3.718,3.54,3.17,3.17,0,0,0-2.09-5.96,25.316,25.316,0,0,0,2.376-8.18h1.3Zm15.729,1.16-1.408.95c0.4,0.29.814,0.62,1.232,0.97l-5.655.11c0.4-.64.837-1.34,1.233-2.03h4.6Zm3.455-3.78v1.56H626.775v-1.56h14.082Zm-5.743,13.82v-1.7h6.777v-2.24h-6.777v-1.92l4.467-.13c0.418,0.44.792,0.86,1.078,1.23l2.046-1.43a28.1,28.1,0,0,0-4.357-3.85H641.1v-1.58h2.42v-4.58h-8.4V7599H632.43v1.41h-8.208v4.58h2.421v1.58h3.168c-0.286.69-.638,1.41-0.968,2.07l-3.124.05,0.11,2.33c1.826-.05,4.136-0.11,6.6-0.18v1.83h-6.315v2.24h6.315v1.7h-8.274v2.31h19.5v-2.31h-8.537Zm27.963-4.98a30.447,30.447,0,0,1-3.367,2.29,10.385,10.385,0,0,1-1.738-2.29h5.105Zm0.77,0H666.2v-2.31H652.713v-1.14H663.3v-2.03H652.713v-1.1H663.3v-2.02H652.713v-1.17h11.2v-2.13H650.029v9.59h-3.653v2.31h3.631v5.04c-0.99.11-1.892,0.24-2.685,0.33l0.6,2.4c2.662-.4,6.292-0.95,9.659-1.5l-0.11-2.31c-1.584.25-3.213,0.49-4.753,0.71v-4.67h2.531a12.913,12.913,0,0,0,9.725,7.92,11.653,11.653,0,0,1,1.65-2.35,14.472,14.472,0,0,1-5.126-1.89,38.366,38.366,0,0,0,4.048-2.49Zm18.919-2.88h-4.312v-1.45h4.312v1.45Zm2.531-5.19h-2.531v1.63h-4.312v-1.63h-2.421v1.63h-2.794v2.11h2.794v3.5h3.345v1.25h-5.413v6.82h2.53v-4.6h2.883v5.28h2.574v-5.28h3.015v2.05c0,0.2-.088.26-0.352,0.26a16.451,16.451,0,0,1-1.959-.02,9.012,9.012,0,0,1,.7,2.27,8.42,8.42,0,0,0,3.191-.35c0.814-.38.99-1.02,0.99-2.12v-4.31h-5.589v-1.25H685.3v-3.5h3.3v-2.11h-3.3v-1.63Zm-4.533-2.51V7599h-2.728v2.05H670.2v6.16c0,3.21-.132,7.79-1.959,10.91a9.74,9.74,0,0,1,2.135,1.43c2-3.38,2.332-8.8,2.332-12.34v-3.85h16.062v-2.31h-8.009Z" transform="translate(-583 -7547)"/>
</svg>
