<svg id="img_1f_point003.svg" xmlns="http://www.w3.org/2000/svg" width="124" height="124" viewBox="0 0 124 124">
  <defs>
    <style>
      .cls-1 {
        fill: #0054a5;
        stroke: #fff;
        stroke-width: 4px;
      }

      .cls-2 {
        fill: #fff;
        fill-rule: evenodd;
      }
    </style>
  </defs>
  <circle id="楕円形_13" data-name="楕円形 13" class="cls-1" cx="62" cy="62" r="60"/>
  <path id="個別席B" class="cls-2" d="M1055.68,7075.03a23.232,23.232,0,0,1-4.49,8.31,17.306,17.306,0,0,1,1.23,2.84,22.989,22.989,0,0,0,1.48-1.89v11.26h2.48v-15.6a40.026,40.026,0,0,0,1.72-4.18Zm10.36,13.95h-2.24v-2.31h2.24v2.31Zm2.51-6.01v-1.89h-2.66v-2.25h-2.02v2.25h-2.54v1.89h2.54v1.89h-1.96v5.9H1068v-5.9h-2.11v-1.89h2.66Zm-7.77,9v-13.6h8.28v13.6h-8.28Zm-2.37-15.87v19.41h2.37v-1.28h8.28v1.08h2.48V7076.1h-13.13Zm19.2,2.2h4.14v3.02h-4.14v-3.02Zm2.25,7.16c0.04-.6.09-1.21,0.13-1.81h4.29v-7.66h-9.04v7.66h2.2c-0.18,3.65-.62,7.61-3.5,9.99a6.9,6.9,0,0,1,1.74,1.91c2.33-1.98,3.36-4.79,3.87-7.81h2.44c-0.15,3.48-.35,4.89-0.68,5.26a0.809,0.809,0,0,1-.73.29,17.689,17.689,0,0,1-2.15-.11,5.385,5.385,0,0,1,.66,2.26,15.465,15.465,0,0,0,2.66-.06,2.315,2.315,0,0,0,1.65-.82c0.62-.74.84-2.86,1.06-8.16,0-.31.02-0.94,0.02-0.94h-4.62Zm8.62-7.82h-2.55v12.39h2.55v-12.39Zm2.62-2.22v16.94a0.471,0.471,0,0,1-.59.53c-0.46,0-1.87,0-3.3-.04a9.645,9.645,0,0,1,.9,2.7,11.681,11.681,0,0,0,4.38-.5c0.9-.42,1.21-1.15,1.21-2.69v-16.94h-2.6Zm19.74,9.33h-4.32v-1.45h4.32v1.45Zm2.53-5.19h-2.53v1.63h-4.32v-1.63h-2.42v1.63h-2.79v2.11h2.79v3.5h3.35v1.25h-5.42v6.82h2.53v-4.6h2.89v5.28h2.57v-5.28h3.02v2.05c0,0.2-.09.26-0.36,0.26a16.3,16.3,0,0,1-1.95-.02,9.341,9.341,0,0,1,.7,2.27,8.423,8.423,0,0,0,3.19-.35c0.81-.38.99-1.02,0.99-2.12v-4.31h-5.59v-1.25h3.35v-3.5h3.3v-2.11h-3.3v-1.63Zm-4.54-2.51V7075h-2.73v2.05h-7.83v6.16c0,3.21-.13,7.79-1.96,10.91a9.633,9.633,0,0,1,2.14,1.43c2-3.38,2.33-8.8,2.33-12.34v-3.85h16.06v-2.31h-8.01Zm11.4,16.57h5.81c3.58,0,6.31-1.52,6.31-4.8a3.7,3.7,0,0,0-3.06-3.85v-0.11a3.686,3.686,0,0,0,2.23-3.52c0-3.04-2.56-4-5.9-4h-5.39v16.28Zm3.25-9.66v-4.14h1.94c1.96,0,2.93.57,2.93,2,0,1.3-.91,2.14-2.97,2.14h-1.9Zm0,7.15v-4.73h2.27c2.24,0,3.43.66,3.43,2.24,0,1.7-1.21,2.49-3.43,2.49h-2.27Z" transform="translate(-1030 -7023)"/>
</svg>
