<svg id="img_2f_point002.svg" xmlns="http://www.w3.org/2000/svg" width="124" height="124" viewBox="0 0 124 124">
  <defs>
    <style>
      .cls-1 {
        fill: #0054a5;
        stroke: #fff;
        stroke-width: 4px;
      }

      .cls-2 {
        fill: #fff;
        fill-rule: evenodd;
      }
    </style>
  </defs>
  <circle id="楕円形_13" data-name="楕円形 13" class="cls-1" cx="62" cy="62" r="60"/>
  <path id="打合せ_スペース" data-name="打合せ スペース" class="cls-2" d="M570.637,9051.14l-2.508.63v-3.14h2.486v-2.47h-2.486V9042h-2.662v4.16h-2.839v2.47h2.839v3.78c-1.122.29-2.2,0.53-3.081,0.71l0.726,2.59,2.355-.59v4.35a0.357,0.357,0,0,1-.418.44c-0.286,0-1.211,0-2.091-.04a9.043,9.043,0,0,1,.77,2.46,7.221,7.221,0,0,0,3.389-.48c0.748-.4,1.012-1.06,1.012-2.35v-5.11c0.946-.24,1.892-0.5,2.839-0.77Zm12.234-7.49h-11.9v2.62h5.566v12.79a0.491,0.491,0,0,1-.616.55c-0.44,0-2.09.02-3.454-.07a10,10,0,0,1,1.034,2.86c2.046,0,3.52-.04,4.511-0.53,1.012-.46,1.364-1.23,1.364-2.77v-12.83h3.5v-2.62Zm16.565,12.19v3.59h-8.691v-3.59h8.691Zm-11.265,6.71h2.574v-0.81h8.691v0.81h2.685v-9.02h-13.95v9.02Zm2.442-13.51a22.575,22.575,0,0,0,4.379-4.46,24.144,24.144,0,0,0,4.51,4.46h-8.889Zm2.9-7.04a23.3,23.3,0,0,1-8.956,7.84,10.6,10.6,0,0,1,1.65,2.13,29.759,29.759,0,0,0,3.411-2.16v1.55h10.958v-1.52a26.388,26.388,0,0,0,3.366,2.09,12.9,12.9,0,0,1,1.694-2.36,22.093,22.093,0,0,1-9.417-7.57h-2.706Zm26.818,1.43a16.943,16.943,0,0,1,.154,1.98v2.47c-1.98.17-4.092,0.37-5.941,0.55,0.022-.86.022-1.59,0.022-2.09a17.275,17.275,0,0,1,.132-2.27h-3.08a16.471,16.471,0,0,1,.176,2.42v2.2l-1.65.16c-1.1.08-2.113,0.13-2.729,0.13l0.286,2.79c0.572-.08,1.937-0.3,2.619-0.39l1.474-.16c0,2.05,0,4.16.022,5.09,0.088,3.76.77,4.95,6.425,4.95a59.888,59.888,0,0,0,6.205-.36l0.11-2.99a40.316,40.316,0,0,1-6.513.57c-3.279,0-3.455-.48-3.521-2.61-0.044-.93-0.022-2.93,0-4.93,1.871-.2,4-0.4,5.919-0.55a24.844,24.844,0,0,1-.154,2.62,0.535,0.535,0,0,1-.682.5,13.79,13.79,0,0,1-2-.26l-0.066,2.4a28,28,0,0,0,3.278.33,1.564,1.564,0,0,0,1.893-1.43,38.309,38.309,0,0,0,.33-4.36c0.638-.04,1.21-0.07,1.672-0.09,0.594-.02,1.738-0.04,2.112-0.02v-2.69c-0.638.05-1.5,0.11-2.09,0.16-0.506.02-1.056,0.06-1.65,0.11,0.022-.73.044-1.5,0.066-2.36a18.648,18.648,0,0,1,.132-1.87h-2.949Zm-53.393,28.33a8.139,8.139,0,0,1-2.289.28h-7.745a24.076,24.076,0,0,1-2.6-.15v3.12c0.462-.02,1.672-0.15,2.6-0.15h7.459a17.068,17.068,0,0,1-3.278,5.39,25.041,25.041,0,0,1-9.022,6.32l2.267,2.37a29.051,29.051,0,0,0,8.273-6.18,50.058,50.058,0,0,1,5.545,6.23l2.508-2.18a60.946,60.946,0,0,0-6.139-6.29,32.283,32.283,0,0,0,3.455-6.06,10.189,10.189,0,0,1,.77-1.36Zm21.8,2.79a1.4,1.4,0,0,1,1.387-1.41,1.42,1.42,0,0,1,1.408,1.41,1.4,1.4,0,0,1-1.408,1.39A1.384,1.384,0,0,1,588.744,9074.55Zm-1.452,0a2.85,2.85,0,0,0,5.7,0A2.85,2.85,0,1,0,587.292,9074.55Zm-13.664,7.22,2.6,2.66c0.374-.57.9-1.36,1.408-2.04,0.9-1.21,2.486-3.39,3.344-4.49,0.638-.8,1.013-0.8,1.783-0.13a47.3,47.3,0,0,1,4.048,4.35c1.3,1.52,3.3,3.96,4.709,5.77l2.354-2.56c-1.584-1.82-3.938-4.33-5.413-5.94a57.168,57.168,0,0,0-4.488-4.46c-1.8-1.52-2.993-1.37-4.313.19-1.5,1.81-3.212,3.97-4.224,4.98C574.772,9080.76,574.288,9081.22,573.628,9081.77Zm23.672-.48c0.815-.07,2.289-0.11,3.543-0.11h11.816c0.924,0,2.046.08,2.574,0.11v-3.46c-0.572.05-1.562,0.13-2.574,0.13H600.843c-1.144,0-2.75-.06-3.543-0.13v3.46Zm36.963-9.53a8.139,8.139,0,0,1-2.289.28h-7.745a24.076,24.076,0,0,1-2.6-.15v3.12c0.462-.02,1.672-0.15,2.6-0.15h7.459a17.068,17.068,0,0,1-3.278,5.39,25.041,25.041,0,0,1-9.022,6.32l2.267,2.37a29.051,29.051,0,0,0,8.273-6.18,50.058,50.058,0,0,1,5.545,6.23l2.508-2.18a60.946,60.946,0,0,0-6.139-6.29,32.283,32.283,0,0,0,3.455-6.06,10.189,10.189,0,0,1,.77-1.36Z" transform="translate(-533 -9003)"/>
</svg>
