<svg id="img_1f_point004.svg" xmlns="http://www.w3.org/2000/svg" width="124" height="124" viewBox="0 0 124 124">
  <defs>
    <style>
      .cls-1 {
        fill: #0054a5;
        stroke: #fff;
        stroke-width: 4px;
      }

      .cls-2 {
        fill: #fff;
        fill-rule: evenodd;
      }
    </style>
  </defs>
  <circle id="楕円形_13" data-name="楕円形 13" class="cls-1" cx="62" cy="62" r="60"/>
  <path id="個別席A" class="cls-2" d="M582.12,7325.03a23.277,23.277,0,0,1-4.489,8.31,18.326,18.326,0,0,1,1.233,2.84,22.534,22.534,0,0,0,1.474-1.89v11.26h2.486v-15.6a40.875,40.875,0,0,0,1.716-4.18Zm10.364,13.95h-2.245v-2.31h2.245v2.31Zm2.508-6.01v-1.89H592.33v-2.25H590.3v2.25h-2.53v1.89h2.53v1.89h-1.958v5.9h6.1v-5.9H592.33v-1.89h2.662Zm-7.767,9v-13.6H595.5v13.6h-8.273Zm-2.376-15.87v19.41h2.376v-1.28H595.5v1.08h2.486V7326.1H584.849Zm19.2,2.2h4.137v3.02h-4.137v-3.02Zm2.244,7.16c0.044-.6.088-1.21,0.132-1.81h4.291v-7.66h-9.043v7.66h2.2c-0.176,3.65-.616,7.61-3.5,9.99a6.858,6.858,0,0,1,1.738,1.91c2.332-1.98,3.366-4.79,3.872-7.81h2.443c-0.154,3.48-.352,4.89-0.682,5.26a0.8,0.8,0,0,1-.727.29,17.725,17.725,0,0,1-2.156-.11,5.356,5.356,0,0,1,.66,2.26,15.5,15.5,0,0,0,2.663-.06,2.308,2.308,0,0,0,1.65-.82c0.616-.74.836-2.86,1.056-8.16,0-.31.022-0.94,0.022-0.94H606.3Zm8.626-7.82h-2.553v12.39h2.553v-12.39Zm2.618-2.22v16.94a0.474,0.474,0,0,1-.594.53c-0.462,0-1.87,0-3.3-.04a9.464,9.464,0,0,1,.9,2.7,11.67,11.67,0,0,0,4.378-.5c0.9-.42,1.21-1.15,1.21-2.69v-16.94h-2.6Zm19.734,9.33h-4.313v-1.45h4.313v1.45Zm2.53-5.19h-2.53v1.63h-4.313v-1.63h-2.42v1.63h-2.795v2.11h2.795v3.5h3.344v1.25h-5.413v6.82h2.531v-4.6h2.882v5.28h2.574v-5.28h3.015v2.05c0,0.2-.088.26-0.352,0.26a16.434,16.434,0,0,1-1.958-.02,9.012,9.012,0,0,1,.7,2.27,8.418,8.418,0,0,0,3.19-.35c0.814-.38.99-1.02,0.99-2.12v-4.31h-5.589v-1.25h3.345v-3.5h3.3v-2.11h-3.3v-1.63Zm-4.533-2.51V7325h-2.728v2.05h-7.833v6.16c0,3.21-.132,7.79-1.959,10.91a9.717,9.717,0,0,1,2.135,1.43c2-3.38,2.332-8.8,2.332-12.34v-3.85h16.062v-2.31h-8.009Zm14.453,9.86,0.484-1.78c0.484-1.7.968-3.55,1.386-5.33h0.088c0.485,1.76.925,3.63,1.431,5.33l0.484,1.78h-3.873Zm5.721,6.71h3.41l-5.236-16.28h-3.829l-5.215,16.28h3.3l1.144-4.18H654.3Z" transform="translate(-556 -7273)"/>
</svg>
