<svg id="img_1f_point003.svg" data-name="img 1f point003.svg" xmlns="http://www.w3.org/2000/svg" viewBox="0 0 143 144">
  <defs>
    <style>
      .cls-2{fill:#fff}
    </style>
  </defs>
  <ellipse id="active" cx="71.5" cy="72" rx="69.5" ry="70" fill="#ff8880" stroke="#fff" stroke-width="4"/>
  <path class="cls-2" d="M42.73 78.12a30.24 30.24 0 006.88 2.3 15.12 15.12 0 00-2.16 2.79 27.09 27.09 0 01-7.68-3.55v3.69h-3.48v-3.57a27.77 27.77 0 01-7.82 3.5 18.22 18.22 0 00-2.21-2.86 31.21 31.21 0 007.27-2.3h-6.36v-2.74h9.12v-.67h-6.45v-6.29c-.29.24-.6.51-.92.75a11.46 11.46 0 00-2.44-2.38 18.65 18.65 0 005.76-6.26l3.57.72c-.36.6-.74 1.2-1.15 1.8h2.69a20.19 20.19 0 001-2.48l3.94.46c-.39.72-.8 1.39-1.2 2h6.76v2.66h-7.43v.65h6.07v2.21h-6.07v.67h6.07v2.21h-6.07v.67h7.95v2.59h-8.6v.67H49v2.74zm-5.64-12.41h-4v.65h4zm0 2.86h-4v.67h4zm-4 3.55h4v-.67h-4zM73.52 61.56v21.77h-3.65v-.91H56.14v.91h-3.48V61.56zm-3.65 17.52V64.89H56.14v14.19zm-.6-8.81h-2.33v5.33c0 1.46-.26 2.23-1.22 2.69a9.37 9.37 0 01-3.87.48 12.42 12.42 0 00-.85-2.91h2.32c.32 0 .44-.09.44-.38v-5.21h-6.92v-2.93h6.89v-2h3.21v2h2.33zm-9.27.17a14.19 14.19 0 012.52 3.67l-2.57 1.44a14.4 14.4 0 00-2.33-3.79zM95.53 65.83v1.56H99v2.79h-3.47V74H92v1h5.9v4.51c0 1.42-.24 2.23-1.2 2.71a8 8 0 01-3.53.48 11.91 11.91 0 00-.88-3h1.82c.26 0 .36-.07.36-.31V78H92v5.4h-3.46V78h-2.33v4.7h-3.38V75h5.71v-1h-3.45v-3.82h-2.77v-2.79h2.77v-1.56h-3.22v3.58c0 4-.39 10.17-2.64 14a13.76 13.76 0 00-2.86-1.92c2-3.41 2.16-8.5 2.16-12v-6.76H87v-2.16h3.65v2.16h8.52v3.1zm-3.39 0H88.3v1.56h3.84zm0 4.35H88.3v1.1h3.84zM103 63.24h6.24c3.69 0 6.65 1 6.65 4.41a4.17 4.17 0 01-2.33 3.87v.09a4.07 4.07 0 013.17 4.21c0 3.64-3.1 5.28-7 5.28H103zm6.07 7.08c1.82 0 2.64-.79 2.64-2s-.84-1.8-2.64-1.8h-1.78v3.82zm.36 7.49c2.06 0 3.12-.75 3.12-2.28s-1-2-3.12-2h-2.14v4.32z"/>
</svg>
