<svg id="img_1f_point003.svg" data-name="img 1f point003.svg" xmlns="http://www.w3.org/2000/svg" viewBox="0 0 143 144">
  <defs>
    <style>
      .cls-2{fill:#fff}
    </style>
  </defs>
  <ellipse id="active" cx="71.5" cy="72" rx="69.5" ry="70" fill="#ff8880" stroke="#fff" stroke-width="4"/>
  <path class="cls-2" d="M34.16 61.61a46.17 46.17 0 01-1.83 4.53V83.4H29V71.81a17.45 17.45 0 01-1.18 1.46 24.14 24.14 0 00-1.6-3.84A24.84 24.84 0 0031 60.62zm14.69.07v21.46h-3.32V82h-8.16v1.39H34.2V61.68zM45.53 79V64.68h-8.16V79zm-2.83-9.21v1.78h2.07v6.5h-6.58v-6.5H40v-1.78h-2.22v-2.47H40V65h2.7v2.31h2.45v2.47zm-.53 4.13h-1.53v1.82h1.53zM63.32 72v1.22c-.22 5.69-.46 8.07-1.13 8.91a2.75 2.75 0 01-1.94 1.05 16.29 16.29 0 01-2.88.12 7.13 7.13 0 00-.92-3 19.33 19.33 0 002.16.1.91.91 0 00.8-.31c.31-.39.5-1.78.65-5.07h-1.9c-.6 3.2-1.75 6.17-4.3 8.36a8.93 8.93 0 00-2.33-2.57c3.15-2.59 3.56-6.63 3.72-10.44h-2.33V61.7h10.13v8.67h-4.44c0 .55-.07 1.08-.12 1.63zm-7.25-4.71h3.62v-2.54h-3.62zm11.83 10h-3.38V63.53h3.38zm5.62-16.18v18.16c0 2-.36 2.88-1.47 3.46a12.47 12.47 0 01-5.05.67 13.87 13.87 0 00-1.2-3.62c1.51.07 3.1.07 3.62.07s.65-.15.65-.6V61.08zM95.53 65.83v1.56H99v2.78h-3.47V74H92v1h5.9v4.51c0 1.42-.24 2.23-1.2 2.71a8 8 0 01-3.53.48 11.91 11.91 0 00-.88-3h1.82c.26 0 .36-.07.36-.31V78H92v5.4h-3.46V78h-2.33v4.7h-3.38V75h5.71v-1h-3.45v-3.8h-2.77v-2.81h2.77v-1.56h-3.22v3.58c0 4-.39 10.17-2.64 14a13.76 13.76 0 00-2.86-1.92c2-3.41 2.16-8.5 2.16-12v-6.76H87v-2.16h3.65v2.16h8.52v3.1zm-3.39 0H88.3v1.56h3.84zm0 4.34H88.3v1.11h3.84zM103 63.24h6.24c3.69 0 6.65 1 6.65 4.41a4.17 4.17 0 01-2.33 3.87v.1a4 4 0 013.17 4.2c0 3.64-3.1 5.28-7 5.28H103zm6.07 7.08c1.82 0 2.64-.79 2.64-2s-.84-1.8-2.64-1.8h-1.78v3.82zm.36 7.49c2.06 0 3.12-.75 3.12-2.28s-1-2-3.12-2h-2.14v4.32z"/>
</svg>
