<svg xmlns="http://www.w3.org/2000/svg" width="124" height="124">
  <circle data-name="楕円形 13" cx="62" cy="62" r="60" fill="#0054a5" stroke="#fff" stroke-width="4"/>
  <path data-name="打合せ スペース" d="M37.64 48.14l-2.51.63v-3.14h2.49v-2.47h-2.49V39h-2.66v4.16h-2.84v2.47h2.84v3.78c-1.13.29-2.2.53-3.08.71l.72 2.59 2.36-.59v4.35a.357.357 0 01-.42.44c-.29 0-1.21 0-2.09-.04a9.185 9.185 0 01.77 2.46 7.242 7.242 0 003.39-.48c.75-.4 1.01-1.06 1.01-2.35v-5.11c.95-.24 1.89-.5 2.84-.77zm12.23-7.49h-11.9v2.62h5.56v12.79a.487.487 0 01-.61.55c-.44 0-2.09.02-3.46-.07a9.957 9.957 0 011.04 2.86c2.04 0 3.52-.04 4.51-.53 1.01-.46 1.36-1.23 1.36-2.77V43.27h3.5v-2.62zm16.57 12.19v3.59h-8.69v-3.59h8.69zm-11.27 6.71h2.58v-.81h8.69v.81h2.68v-9.02H55.17v9.02zm2.44-13.51a22.307 22.307 0 004.38-4.46 24.453 24.453 0 004.51 4.46h-8.89zM60.52 39a23.266 23.266 0 01-8.96 7.84 10.6 10.6 0 011.65 2.13 29.661 29.661 0 003.41-2.16v1.55h10.96v-1.52a25.88 25.88 0 003.37 2.09 12.691 12.691 0 011.69-2.36A22.125 22.125 0 0163.22 39h-2.7zm26.82 1.43a18.428 18.428 0 01.15 1.98v2.47c-1.98.17-4.09.37-5.94.55.02-.86.02-1.59.02-2.09a18.813 18.813 0 01.13-2.27h-3.08a16.448 16.448 0 01.18 2.42v2.2l-1.65.16c-1.1.08-2.11.13-2.73.13l.29 2.79c.57-.08 1.93-.3 2.61-.39l1.48-.16c0 2.05 0 4.16.02 5.09.09 3.76.77 4.95 6.43 4.95a59.853 59.853 0 006.2-.36l.11-2.99a40.339 40.339 0 01-6.51.57c-3.28 0-3.46-.48-3.52-2.61-.05-.93-.02-2.93 0-4.93 1.87-.2 4-.4 5.92-.55-.03 1.03-.07 2.02-.16 2.62-.06.41-.24.5-.68.5a13.733 13.733 0 01-2-.26l-.07 2.4a28.03 28.03 0 003.28.33 1.562 1.562 0 001.89-1.43 36.118 36.118 0 00.33-4.36c.64-.04 1.21-.07 1.67-.09.6-.02 1.74-.04 2.12-.02v-2.69c-.64.05-1.5.11-2.09.16-.51.02-1.06.06-1.65.11.02-.73.04-1.5.06-2.36.02-.59.07-1.54.13-1.87h-2.94zm-53.4 28.33a8.136 8.136 0 01-2.29.28h-7.74a24.242 24.242 0 01-2.6-.15v3.12c.46-.02 1.68-.15 2.6-.15h7.46a17.226 17.226 0 01-3.28 5.39 25.068 25.068 0 01-9.02 6.32l2.26 2.37a28.971 28.971 0 008.28-6.18 49.837 49.837 0 015.54 6.23l2.51-2.18a61.07 61.07 0 00-6.14-6.29 32.107 32.107 0 003.46-6.06 9.013 9.013 0 01.77-1.36zm21.8 2.79a1.4 1.4 0 011.39-1.41 1.421 1.421 0 011.41 1.41 1.4 1.4 0 01-1.41 1.39 1.387 1.387 0 01-1.39-1.39zm-1.45 0a2.85 2.85 0 005.7 0 2.85 2.85 0 10-5.7 0zm-13.66 7.22l2.59 2.66c.38-.57.91-1.36 1.41-2.04.91-1.21 2.49-3.39 3.35-4.49.64-.8 1.01-.8 1.78-.13a48.712 48.712 0 014.05 4.35c1.3 1.52 3.3 3.96 4.71 5.77l2.35-2.56c-1.58-1.82-3.94-4.33-5.41-5.94a58.965 58.965 0 00-4.49-4.46c-1.8-1.52-2.99-1.37-4.31.19-1.5 1.81-3.22 3.97-4.23 4.98-.66.66-1.14 1.12-1.8 1.67zm23.67-.48c.81-.07 2.29-.11 3.54-.11h11.82c.92 0 2.05.08 2.57.11v-3.46c-.57.05-1.56.13-2.57.13H67.84c-1.14 0-2.75-.06-3.54-.13v3.46zm36.96-9.53a8.136 8.136 0 01-2.29.28h-7.74a24.242 24.242 0 01-2.6-.15v3.12c.46-.02 1.68-.15 2.6-.15h7.46a17.226 17.226 0 01-3.28 5.39 25.068 25.068 0 01-9.02 6.32l2.26 2.37a28.971 28.971 0 008.28-6.18 49.837 49.837 0 015.54 6.23l2.51-2.18a61.07 61.07 0 00-6.14-6.29 32.107 32.107 0 003.46-6.06 9.013 9.013 0 01.77-1.36z" fill="#fff" fill-rule="evenodd"/>
</svg>
