<svg xmlns="http://www.w3.org/2000/svg" width="124" height="124">
  <circle data-name="楕円形 13" cx="62" cy="62" r="60" fill="#0054a5" stroke="#fff" stroke-width="4"/>
  <path d="M26.12 52.03a23.277 23.277 0 01-4.489 8.31 18.326 18.326 0 011.233 2.84 22.534 22.534 0 001.474-1.89v11.26h2.486v-15.6a40.875 40.875 0 001.716-4.18zm10.364 13.95h-2.245v-2.31h2.245v2.31zm2.508-6.01v-1.89H36.33v-2.25H34.3v2.25h-2.53v1.89h2.53v1.89h-1.958v5.9h6.1v-5.9H36.33v-1.89h2.662zm-7.767 9v-13.6H39.5v13.6h-8.273zM28.849 53.1v19.41h2.376v-1.28H39.5v1.08h2.486V53.1H28.849zm19.2 2.2h4.137v3.02h-4.137V55.3zm2.244 7.16c.044-.6.088-1.21.132-1.81h4.291v-7.66h-9.043v7.66h2.2c-.176 3.65-.616 7.61-3.5 9.99a6.858 6.858 0 011.738 1.91c2.332-1.98 3.366-4.79 3.872-7.81h2.443c-.154 3.48-.352 4.89-.682 5.26a.8.8 0 01-.727.29 17.725 17.725 0 01-2.156-.11 5.356 5.356 0 01.66 2.26 15.5 15.5 0 002.663-.06 2.308 2.308 0 001.65-.82c.616-.74.836-2.86 1.056-8.16 0-.31.022-.94.022-.94H50.3zm8.626-7.82h-2.553v12.39h2.553V54.64zm2.618-2.22v16.94a.474.474 0 01-.594.53c-.462 0-1.87 0-3.3-.04a9.464 9.464 0 01.9 2.7 11.67 11.67 0 004.378-.5c.9-.42 1.21-1.15 1.21-2.69V52.42h-2.6zm19.734 9.33h-4.313V60.3h4.313v1.45zm2.53-5.19h-2.53v1.63h-4.313v-1.63h-2.42v1.63h-2.795v2.11h2.795v3.5h3.344v1.25h-5.413v6.82H75v-4.6h2.882v5.28h2.574v-5.28h3.015v2.05c0 .2-.088.26-.352.26a16.434 16.434 0 01-1.958-.02 9.012 9.012 0 01.7 2.27 8.418 8.418 0 003.19-.35c.814-.38.99-1.02.99-2.12v-4.31h-5.589V63.8h3.345v-3.5h3.3v-2.11h-3.3v-1.63zm-4.533-2.51V52H76.54v2.05h-7.833v6.16c0 3.21-.132 7.79-1.959 10.91a9.717 9.717 0 012.135 1.43c2-3.38 2.332-8.8 2.332-12.34v-3.85h16.062v-2.31h-8.009zm14.453 9.86l.484-1.78c.484-1.7.968-3.55 1.386-5.33h.088c.485 1.76.925 3.63 1.431 5.33l.484 1.78h-3.873zm5.721 6.71h3.41l-5.236-16.28h-3.829l-5.215 16.28h3.3l1.144-4.18H98.3z" fill="#fff" fill-rule="evenodd"/>
</svg>
