<svg id="img_1f_point001.svg" xmlns="http://www.w3.org/2000/svg" width="143" height="144" viewBox="0 0 143 144">
  <defs>
    <style>
      .cls-1 {
        fill: #ff8880;
        stroke: #fff;
        stroke-width: 4px;
      }

      .cls-2 {
        fill: #fff;
        fill-rule: evenodd;
      }
    </style>
  </defs>
  <ellipse id="active" class="cls-1" cx="71.5" cy="72" rx="69.5" ry="70"/>
  <path id="入口" class="cls-2" d="M796.036,7655.77v3.84h5.747c0.078,0.81.182,1.67,0.338,2.55l-1.873-.34c-1.326,6.61-4.368,11.55-9.62,14.15a27.072,27.072,0,0,1,3.458,3.09c4.186-2.57,7.255-6.68,9.231-12.11a21.37,21.37,0,0,0,9.178,12.06,19.865,19.865,0,0,1,3.042-3.33c-9.282-5.41-10.036-14.79-10.036-19.91h-9.465Zm26.936,16.92v-12.01H836v12.01H822.972Zm-3.952-15.86v21.82h3.952v-2.06H836v2.06h4.16v-21.82H819.02Z" transform="translate(-744 -7595)"/>
</svg>
