<svg xmlns="http://www.w3.org/2000/svg" width="124" height="124">
  <circle data-name="楕円形 13" cx="62" cy="62" r="60" fill="#0054a5" stroke="#fff" stroke-width="4"/>
  <path d="M34.669 58.41a23.372 23.372 0 01-1.166 5.12 27.64 27.64 0 01-1.343-5.12h2.509zM26.263 61h-1.276c.33-.35.638-.72.946-1.1h2.619a10.65 10.65 0 01-1.056 1.59l-.77-.62zm-2.376-4.82H25.6c-.308.51-.638.99-.99 1.48h-.726v-1.48zm14.786 2.23v-2.42H32.82c.308-1.17.573-2.38.793-3.61l-2.663-.4a26.425 26.425 0 01-2.024 7.17v-1.49H27.54a26.682 26.682 0 002.288-4.47l-2.42-.68a21.469 21.469 0 01-1.387 2.97v-1.5h-2.134v-2h-2.442v2h-2.487v2.2h2.487v1.48h-3.213v2.24h4.423c-.4.38-.792.75-1.21 1.1h-1.408v1.06a19.6 19.6 0 01-2.311 1.34 17.169 17.169 0 011.761 2 22.5 22.5 0 003.41-2.37h1.562c-.374.39-.77.77-1.144 1.1h-.858v1.71c-1.65.14-3.169.25-4.4.33l.264 2.34c1.211-.11 2.619-.25 4.137-.38V70c0 .24-.088.31-.374.31-.264.02-1.232.02-2.068 0a8.885 8.885 0 01.748 2.22 8.145 8.145 0 003.168-.37c.792-.38.99-.97.99-2.09v-2.16c1.32-.11 2.663-.22 3.983-.35v-2.24c-1.32.11-2.663.24-3.983.33v-.44a23.274 23.274 0 003.081-3.02 13.132 13.132 0 011.452 1.34 16.109 16.109 0 001.012-1.51 24.817 24.817 0 001.5 4.46 11.109 11.109 0 01-4.73 3.76 10.92 10.92 0 011.5 2.38 14.363 14.363 0 004.643-3.61 11.666 11.666 0 003.718 3.54 3.17 3.17 0 00-2.09-5.96 25.316 25.316 0 002.376-8.18h1.3zm15.729 1.16l-1.408.95c.4.29.814.62 1.232.97l-5.655.11c.4-.64.837-1.34 1.233-2.03h4.6zm3.455-3.78v1.56H43.775v-1.56h14.082zm-5.743 13.82v-1.7h6.777v-2.24h-6.777v-1.92l4.467-.13c.418.44.792.86 1.078 1.23l2.046-1.43a28.1 28.1 0 00-4.357-3.85H58.1v-1.58h2.42v-4.58h-8.4V52h-2.69v1.41h-8.208v4.58h2.421v1.58h3.168c-.286.69-.638 1.41-.968 2.07l-3.124.05.11 2.33c1.826-.05 4.136-.11 6.6-.18v1.83h-6.315v2.24h6.315v1.7h-8.274v2.31h19.5v-2.31h-8.537zm27.963-4.98a30.447 30.447 0 01-3.367 2.29 10.385 10.385 0 01-1.738-2.29h5.105zm.77 0H83.2v-2.31H69.713v-1.14H80.3v-2.03H69.713v-1.1H80.3v-2.02H69.713v-1.17h11.2v-2.13H67.029v9.59h-3.653v2.31h3.631v5.04c-.99.11-1.892.24-2.685.33l.6 2.4c2.662-.4 6.292-.95 9.659-1.5l-.11-2.31c-1.584.25-3.213.49-4.753.71v-4.67h2.531a12.913 12.913 0 009.725 7.92 11.653 11.653 0 011.65-2.35 14.472 14.472 0 01-5.126-1.89 38.366 38.366 0 004.048-2.49zm18.919-2.88h-4.312V60.3h4.312v1.45zm2.531-5.19h-2.531v1.63h-4.312v-1.63h-2.421v1.63h-2.794v2.11h2.794v3.5h3.345v1.25h-5.413v6.82h2.53v-4.6h2.883v5.28h2.574v-5.28h3.015v2.05c0 .2-.088.26-.352.26a16.451 16.451 0 01-1.959-.02 9.012 9.012 0 01.7 2.27 8.42 8.42 0 003.191-.35c.814-.38.99-1.02.99-2.12v-4.31h-5.589V63.8h3.352v-3.5h3.3v-2.11h-3.3v-1.63zm-4.533-2.51V52h-2.728v2.05H87.2v6.16c0 3.21-.132 7.79-1.959 10.91a9.74 9.74 0 012.135 1.43c2-3.38 2.332-8.8 2.332-12.34v-3.85h16.062v-2.31h-8.009z" fill="#fff" fill-rule="evenodd"/>
</svg>
