<svg id="img_1f_point002.svg" xmlns="http://www.w3.org/2000/svg" width="124" height="124" viewBox="0 0 124 124">
  <defs>
    <style>
      .cls-1 {
        fill: #0054a5;
        stroke: #fff;
        stroke-width: 4px;
      }

      .cls-2 {
        fill: #fff;
        fill-rule: evenodd;
      }
    </style>
  </defs>
  <circle id="楕円形_13" data-name="楕円形 13" class="cls-1" cx="62" cy="62" r="60"/>
  <path id="打合せ_スペース" data-name="打合せ スペース" class="cls-2" d="M1057.64,7673.14l-2.51.63v-3.14h2.49v-2.47h-2.49V7664h-2.66v4.16h-2.84v2.47h2.84v3.78c-1.13.29-2.2,0.53-3.08,0.71l0.72,2.59,2.36-.59v4.35a0.357,0.357,0,0,1-.42.44c-0.29,0-1.21,0-2.09-.04a9.185,9.185,0,0,1,.77,2.46,7.242,7.242,0,0,0,3.39-.48c0.75-.4,1.01-1.06,1.01-2.35v-5.11c0.95-.24,1.89-0.5,2.84-0.77Zm12.23-7.49h-11.9v2.62h5.56v12.79a0.487,0.487,0,0,1-.61.55c-0.44,0-2.09.02-3.46-.07a9.957,9.957,0,0,1,1.04,2.86c2.04,0,3.52-.04,4.51-0.53,1.01-.46,1.36-1.23,1.36-2.77v-12.83h3.5v-2.62Zm16.57,12.19v3.59h-8.69v-3.59h8.69Zm-11.27,6.71h2.58v-0.81h8.69v0.81h2.68v-9.02h-13.95v9.02Zm2.44-13.51a22.307,22.307,0,0,0,4.38-4.46,24.453,24.453,0,0,0,4.51,4.46h-8.89Zm2.91-7.04a23.266,23.266,0,0,1-8.96,7.84,10.6,10.6,0,0,1,1.65,2.13,29.661,29.661,0,0,0,3.41-2.16v1.55h10.96v-1.52a25.88,25.88,0,0,0,3.37,2.09,12.691,12.691,0,0,1,1.69-2.36,22.125,22.125,0,0,1-9.42-7.57h-2.7Zm26.82,1.43a18.428,18.428,0,0,1,.15,1.98v2.47c-1.98.17-4.09,0.37-5.94,0.55,0.02-.86.02-1.59,0.02-2.09a18.813,18.813,0,0,1,.13-2.27h-3.08a16.448,16.448,0,0,1,.18,2.42v2.2l-1.65.16c-1.1.08-2.11,0.13-2.73,0.13l0.29,2.79c0.57-.08,1.93-0.3,2.61-0.39l1.48-.16c0,2.05,0,4.16.02,5.09,0.09,3.76.77,4.95,6.43,4.95a59.853,59.853,0,0,0,6.2-.36l0.11-2.99a40.339,40.339,0,0,1-6.51.57c-3.28,0-3.46-.48-3.52-2.61-0.05-.93-0.02-2.93,0-4.93,1.87-.2,4-0.4,5.92-0.55-0.03,1.03-.07,2.02-0.16,2.62-0.06.41-.24,0.5-0.68,0.5a13.733,13.733,0,0,1-2-.26l-0.07,2.4a28.03,28.03,0,0,0,3.28.33,1.562,1.562,0,0,0,1.89-1.43,36.118,36.118,0,0,0,.33-4.36c0.64-.04,1.21-0.07,1.67-0.09,0.6-.02,1.74-0.04,2.12-0.02v-2.69c-0.64.05-1.5,0.11-2.09,0.16-0.51.02-1.06,0.06-1.65,0.11,0.02-.73.04-1.5,0.06-2.36,0.02-.59.07-1.54,0.13-1.87h-2.94Zm-53.4,28.33a8.136,8.136,0,0,1-2.29.28h-7.74a24.242,24.242,0,0,1-2.6-.15v3.12c0.46-.02,1.68-0.15,2.6-0.15h7.46a17.226,17.226,0,0,1-3.28,5.39,25.068,25.068,0,0,1-9.02,6.32l2.26,2.37a28.971,28.971,0,0,0,8.28-6.18,49.837,49.837,0,0,1,5.54,6.23l2.51-2.18a61.07,61.07,0,0,0-6.14-6.29,32.107,32.107,0,0,0,3.46-6.06,9.013,9.013,0,0,1,.77-1.36Zm21.8,2.79a1.4,1.4,0,0,1,1.39-1.41,1.421,1.421,0,0,1,1.41,1.41,1.4,1.4,0,0,1-1.41,1.39A1.387,1.387,0,0,1,1075.74,7696.55Zm-1.45,0a2.85,2.85,0,0,0,5.7,0A2.85,2.85,0,1,0,1074.29,7696.55Zm-13.66,7.22,2.59,2.66c0.38-.57.91-1.36,1.41-2.04,0.91-1.21,2.49-3.39,3.35-4.49,0.64-.8,1.01-0.8,1.78-0.13a48.712,48.712,0,0,1,4.05,4.35c1.3,1.52,3.3,3.96,4.71,5.77l2.35-2.56c-1.58-1.82-3.94-4.33-5.41-5.94a58.965,58.965,0,0,0-4.49-4.46c-1.8-1.52-2.99-1.37-4.31.19-1.5,1.81-3.22,3.97-4.23,4.98C1061.77,7702.76,1061.29,7703.22,1060.63,7703.77Zm23.67-.48c0.81-.07,2.29-0.11,3.54-0.11h11.82c0.92,0,2.05.08,2.57,0.11v-3.46c-0.57.05-1.56,0.13-2.57,0.13h-11.82c-1.14,0-2.75-.06-3.54-0.13v3.46Zm36.96-9.53a8.136,8.136,0,0,1-2.29.28h-7.74a24.242,24.242,0,0,1-2.6-.15v3.12c0.46-.02,1.68-0.15,2.6-0.15h7.46a17.226,17.226,0,0,1-3.28,5.39,25.068,25.068,0,0,1-9.02,6.32l2.26,2.37a28.971,28.971,0,0,0,8.28-6.18,49.837,49.837,0,0,1,5.54,6.23l2.51-2.18a61.07,61.07,0,0,0-6.14-6.29,32.107,32.107,0,0,0,3.46-6.06,9.013,9.013,0,0,1,.77-1.36Z" transform="translate(-1020 -7625)"/>
</svg>
