<svg id="img_1f_point003.svg" data-name="img 1f point003.svg" xmlns="http://www.w3.org/2000/svg" viewBox="0 0 143 144">
  <defs>
    <style>
      .cls-2{fill:#fff}
    </style>
  </defs>
  <ellipse id="active" cx="71.5" cy="72" rx="69.5" ry="70" fill="#ff8880" stroke="#fff" stroke-width="4"/>
  <path class="cls-2" d="M54.5 63.6v19.73h-3.72V82.2H40.1v1.13h-3.53V63.6h6.19a28.4 28.4 0 00.5-3.05l4.28.43c-.34.91-.72 1.83-1.06 2.62zm-14.4 3.33v1.85h10.68v-1.85zm0 5.07v1.87h10.68V72zm10.68 7v-1.91H40.1V79zM72.26 71.5c-.29.57-.6 1.15-.92 1.67h7.49v10.25h-3.64v-.81h-9.51v.81h-3.46V73.17h5.65c.14-.4.26-.81.38-1.2a10.22 10.22 0 01-3.07.27 9.16 9.16 0 00-.75-2.24c-1.46.65-3 1.27-4.25 1.8L59 69c1.06-.29 2.5-.75 4-1.25a16.33 16.33 0 00-2.9-2l1.22-1.51h-1.64v-2.68h10v8a3.29 3.29 0 01-.29 1.6zm-7.35-1.66h1.25c.26 0 .36-.1.36-.34v-5.28h-3.86a12.44 12.44 0 012.11 1.39l-1.61 2.09 2-.67.51 2.47zm10.28 5.93h-9.51v.84h9.51zm0 4.25v-.84h-9.51V80zm5.44-10.61c0 1.36-.28 2-1.2 2.47a9.17 9.17 0 01-3.69.41 11 11 0 00-.84-2.48l-3.75 1.37L70 68.61c1-.28 2.35-.69 3.76-1.17a21 21 0 00-2.71-1.75l1.18-1.47h-1.44v-2.66h9.84zM77.06 69l-1.87.72h1.8c.24 0 .4-.09.4-.36v-5.14h-3.55a13.35 13.35 0 012.07 1.32l-1.23 1.61 1.85-.62zM102.81 65.83v1.56h3.46v2.78h-3.46V74h-3.55v1h5.93v4.51c0 1.42-.24 2.23-1.2 2.71a8.07 8.07 0 01-3.53.48 11.93 11.93 0 00-.89-3h1.82c.26 0 .36-.07.36-.31V78h-2.49v5.4h-3.43V78H93.5v4.7h-3.39V75h5.72v-1h-3.46v-3.8h-2.76v-2.81h2.76v-1.56h-3.22v3.58c0 4-.38 10.17-2.64 14a13.69 13.69 0 00-2.85-1.92c2-3.41 2.16-8.5 2.16-12v-6.76h8.44v-2.16h3.65v2.16h8.52v3.1zm-3.39 0h-3.83v1.56h3.83zm0 4.34h-3.83v1.11h3.83z"/>
</svg>
