<svg id="img_1f_point003.svg" data-name="img 1f point003.svg" xmlns="http://www.w3.org/2000/svg" viewBox="0 0 143 144">
  <defs>
    <style>
      .cls-2{fill:#fff}
    </style>
  </defs>
  <ellipse id="active" cx="71.5" cy="72" rx="69.5" ry="70" fill="#ff8880" stroke="#fff" stroke-width="4"/>
  <path class="cls-2" d="M34 61.61a46.17 46.17 0 01-1.83 4.53V83.4H28.9V71.81a17.45 17.45 0 01-1.18 1.46 24.14 24.14 0 00-1.6-3.84 24.84 24.84 0 004.72-8.81zm14.69.07v21.46h-3.28V82h-8.16v1.39h-3.17V61.68zM45.41 79V64.68h-8.16V79zm-2.83-9.17v1.78h2.07v6.5h-6.58v-6.5h1.85v-1.82h-2.26v-2.47h2.26V65h2.66v2.31H45v2.47zm-.53 4.13h-1.53v1.82h1.53zM63.2 72s0 .84-.05 1.22c-.22 5.69-.46 8.07-1.13 8.91a2.75 2.75 0 01-1.94 1.05 16.29 16.29 0 01-2.88.12 7.13 7.13 0 00-.92-3 19.39 19.39 0 002.17.1.9.9 0 00.79-.31c.31-.39.5-1.78.65-5.07H58c-.6 3.2-1.75 6.17-4.3 8.36a8.93 8.93 0 00-2.33-2.57c3.15-2.59 3.56-6.63 3.72-10.44H52.8V61.7h10.13v8.67h-4.44c0 .55-.07 1.08-.12 1.63zM56 67.29h3.62v-2.54H56zm11.83 10H64.4V63.53h3.38zm5.57-16.21v18.19c0 2-.36 2.88-1.47 3.46a12.47 12.47 0 01-5.06.67 13.87 13.87 0 00-1.2-3.62c1.51.07 3.1.07 3.62.07s.65-.15.65-.6V61.08zM95.41 65.83v1.56h3.45v2.78h-3.45V74h-3.56v1h5.93v4.51c0 1.42-.24 2.23-1.2 2.71a8 8 0 01-3.53.48 11.91 11.91 0 00-.88-3h1.82c.26 0 .36-.07.36-.31V78h-2.5v5.4h-3.43V78h-2.33v4.7h-3.38V75h5.71v-1H85v-3.8h-2.8v-2.81H85v-1.56h-3.25v3.58c0 4-.39 10.17-2.64 14a13.76 13.76 0 00-2.86-1.92c2-3.41 2.16-8.5 2.16-12v-6.76h8.45v-2.16h3.65v2.16H99v3.1zm-3.39 0h-3.84v1.56H92zm0 4.34h-3.84v1.11H92zM111.34 77h-5.28l-1 4.11h-4.37l5.54-17.86h5.14l5.55 17.86h-4.52zm-.81-3.31l-.39-1.51c-.48-1.78-.94-3.92-1.41-5.74h-.1c-.43 1.87-.91 4-1.37 5.74l-.38 1.51z"/>
</svg>
