<svg id="img_1f_point003.svg" data-name="img 1f point003.svg" xmlns="http://www.w3.org/2000/svg" viewBox="0 0 143 144">
  <defs>
    <style>
      .cls-2{fill:#fff}
    </style>
  </defs>
  <ellipse id="active" cx="71.5" cy="72" rx="69.5" ry="70" fill="#ff8880" stroke="#fff" stroke-width="4"/>
  <path class="cls-2" d="M44.43 68.14A27.08 27.08 0 0142 76.73a11.15 11.15 0 004.06 3.62 13.94 13.94 0 00-2.43 3.05 12.89 12.89 0 01-3.79-3.48 15.35 15.35 0 01-4.8 3.58 15.82 15.82 0 00-2-3.2A11.2 11.2 0 0038 76.61a30.58 30.58 0 01-1.36-4 9.18 9.18 0 01-.8 1.13A15.59 15.59 0 0034 72.05a25.92 25.92 0 01-3.24 3.31v.22l4-.29v2.95c-1.32.12-2.69.22-4 .31v1.68c0 1.42-.24 2.21-1.2 2.67a8.71 8.71 0 01-3.65.5 10.73 10.73 0 00-1-3h2.14c.29 0 .4-.07.4-.33v-1.25l-4.29.31-.34-3.07 4.63-.27v-1.73h1c.29-.26.58-.55.87-.86h-1.07a24 24 0 01-3.36 2.3 19.46 19.46 0 00-2.3-2.66 21.2 21.2 0 002.57-1.49v-.82h1.13c.35-.28.71-.57 1.05-.88h-4.2v-3h3.22v-1.2h-2.48v-2.9h2.48v-2h3.21v2h2v1.7A22.93 22.93 0 0033 61.17l3.22.92a31 31 0 01-2.28 4.58h1v1.56A28.33 28.33 0 0037 60.55l3.53.55c-.22 1.3-.48 2.57-.79 3.82h6.06v3.22zm-14.86-1.47H30c.29-.38.58-.79.84-1.2h-1.3zm2.79 3.7l.86.69c.34-.43.67-.91 1-1.41h-2.4c-.27.31-.51.6-.77.88h.69zm6.57-2.23A29.65 29.65 0 0040 72.46a26.84 26.84 0 00.86-4.32zM70.13 79.68v3H48.72v-3h8.77v-1.2h-6.68v-3h6.68v-1.56l-7 .17L50.4 71h3.36c.24-.51.46-1.06.65-1.56h-2.93v-2.1h-2.8V62h8.81v-1.4h3.6V62h9v5.35h-2.81v2.07h-2.11a28.66 28.66 0 013.93 3.68L66.37 75a12.69 12.69 0 00-1.06-1.27l-4.22.14v1.63h7.24v3h-7.24v1.2zm-18-14.55v1.32h14.4v-1.32zm6.24 4.28c-.29.52-.6 1-.89 1.51l4.85-.07c-.27-.24-.53-.46-.8-.67l1.18-.77zM94.73 76.25a41.74 41.74 0 01-3.81 2.4 16.68 16.68 0 004.87 1.61 13.4 13.4 0 00-2.21 3.14 13.78 13.78 0 01-10.37-8.52h-2.37v4.42c1.51-.22 3.07-.44 4.58-.63l.17 3.07c-3.63.56-7.54 1.11-10.46 1.52l-.77-3.2 2.88-.31v-4.87h-3.89v-3h3.91V61.32h15.39v2.83H80.84V65h11.21v2.66H80.84v.77h11.21v2.66H80.84v.77h14.45v3h-2.5zm-7.82-1.37a9.74 9.74 0 001.54 1.94 26.31 26.31 0 002.78-1.94zM116.79 65.83v1.56h3.46v2.79h-3.46V74h-3.55v1h5.93v4.51c0 1.42-.24 2.23-1.2 2.71a8.07 8.07 0 01-3.53.48 11.93 11.93 0 00-.89-3h1.82c.26 0 .36-.07.36-.31V78h-2.49v5.4h-3.43V78h-2.33v4.7h-3.39V75h5.72v-1h-3.46v-3.82h-2.76v-2.79h2.76v-1.56h-3.22v3.58c0 4-.38 10.17-2.64 14a13.69 13.69 0 00-2.85-1.92c2-3.41 2.16-8.5 2.16-12v-6.76h8.45v-2.16h3.64v2.16h8.52v3.1zm-3.38 0h-3.84v1.56h3.84zm0 4.35h-3.84v1.1h3.84z"/>
</svg>
