<svg xmlns="http://www.w3.org/2000/svg" width="124" height="124">
  <circle data-name="楕円形 13" cx="62" cy="62" r="60" fill="#0054a5" stroke="#fff" stroke-width="4"/>
  <path data-name="打合せ スペース" d="M37.637 48.14l-2.508.63v-3.14h2.486v-2.47h-2.486V39h-2.662v4.16h-2.839v2.47h2.839v3.78c-1.122.29-2.2.53-3.081.71l.726 2.59 2.355-.59v4.35a.357.357 0 01-.418.44c-.286 0-1.211 0-2.091-.04a9.043 9.043 0 01.77 2.46 7.221 7.221 0 003.389-.48c.748-.4 1.012-1.06 1.012-2.35v-5.11c.946-.24 1.892-.5 2.839-.77zm12.234-7.49h-11.9v2.62h5.566v12.79a.491.491 0 01-.616.55c-.44 0-2.09.02-3.454-.07a10 10 0 011.034 2.86c2.046 0 3.52-.04 4.511-.53 1.012-.46 1.364-1.23 1.364-2.77V43.27h3.5v-2.62zm16.565 12.19v3.59h-8.691v-3.59h8.691zm-11.265 6.71h2.574v-.81h8.691v.81h2.685v-9.02h-13.95v9.02zm2.442-13.51a22.575 22.575 0 004.379-4.46 24.144 24.144 0 004.51 4.46h-8.889zm2.9-7.04a23.3 23.3 0 01-8.956 7.84 10.6 10.6 0 011.65 2.13 29.759 29.759 0 003.411-2.16v1.55h10.958v-1.52a26.388 26.388 0 003.366 2.09 12.9 12.9 0 011.694-2.36A22.093 22.093 0 0163.219 39h-2.706zm26.818 1.43a16.943 16.943 0 01.154 1.98v2.47c-1.98.17-4.092.37-5.941.55.022-.86.022-1.59.022-2.09a17.275 17.275 0 01.132-2.27h-3.08a16.471 16.471 0 01.176 2.42v2.2l-1.65.16c-1.1.08-2.113.13-2.729.13l.286 2.79c.572-.08 1.937-.3 2.619-.39l1.474-.16c0 2.05 0 4.16.022 5.09.088 3.76.77 4.95 6.425 4.95a59.888 59.888 0 006.205-.36l.11-2.99a40.316 40.316 0 01-6.513.57c-3.279 0-3.455-.48-3.521-2.61-.044-.93-.022-2.93 0-4.93 1.871-.2 4-.4 5.919-.55a24.844 24.844 0 01-.154 2.62.535.535 0 01-.682.5 13.79 13.79 0 01-2-.26l-.066 2.4a28 28 0 003.278.33 1.564 1.564 0 001.893-1.43 38.309 38.309 0 00.33-4.36c.638-.04 1.21-.07 1.672-.09.594-.02 1.738-.04 2.112-.02v-2.69c-.638.05-1.5.11-2.09.16-.506.02-1.056.06-1.65.11.022-.73.044-1.5.066-2.36a18.648 18.648 0 01.132-1.87h-2.949zM33.938 68.76a8.139 8.139 0 01-2.289.28h-7.745a24.076 24.076 0 01-2.6-.15v3.12c.462-.02 1.672-.15 2.6-.15h7.459a17.068 17.068 0 01-3.278 5.39 25.041 25.041 0 01-9.022 6.32l2.267 2.37a29.051 29.051 0 008.273-6.18 50.058 50.058 0 015.545 6.23l2.508-2.18a60.946 60.946 0 00-6.139-6.29 32.283 32.283 0 003.455-6.06 10.189 10.189 0 01.77-1.36zm21.8 2.79a1.4 1.4 0 011.387-1.41 1.42 1.42 0 011.408 1.41 1.4 1.4 0 01-1.408 1.39 1.384 1.384 0 01-1.381-1.39zm-1.452 0a2.85 2.85 0 005.7 0 2.85 2.85 0 10-5.694 0zm-13.664 7.22l2.6 2.66c.374-.57.9-1.36 1.408-2.04.9-1.21 2.486-3.39 3.344-4.49.638-.8 1.013-.8 1.783-.13a47.3 47.3 0 014.048 4.35c1.3 1.52 3.3 3.96 4.709 5.77l2.354-2.56c-1.584-1.82-3.938-4.33-5.413-5.94a57.168 57.168 0 00-4.488-4.46c-1.8-1.52-2.993-1.37-4.313.19-1.5 1.81-3.212 3.97-4.224 4.98-.658.66-1.142 1.12-1.802 1.67zm23.672-.48c.815-.07 2.289-.11 3.543-.11h11.816c.924 0 2.046.08 2.574.11v-3.46c-.572.05-1.562.13-2.574.13h-11.81c-1.144 0-2.75-.06-3.543-.13v3.46zm36.963-9.53a8.139 8.139 0 01-2.289.28h-7.745a24.076 24.076 0 01-2.6-.15v3.12c.462-.02 1.672-.15 2.6-.15h7.459a17.068 17.068 0 01-3.278 5.39 25.041 25.041 0 01-9.022 6.32l2.267 2.37a29.051 29.051 0 008.273-6.18 50.058 50.058 0 015.545 6.23l2.508-2.18a60.946 60.946 0 00-6.139-6.29 32.283 32.283 0 003.455-6.06 10.189 10.189 0 01.77-1.36z" fill="#fff" fill-rule="evenodd"/>
</svg>
