<svg id="img_1f_point003.svg" data-name="img 1f point003.svg" xmlns="http://www.w3.org/2000/svg" viewBox="0 0 124 124">
  <defs>
    <style>
      .cls-2{fill:#fff}
    </style>
  </defs>
  <circle id="楕円形_13" data-name="楕円形 13" cx="62" cy="62" r="60" fill="#0054a5" stroke="#fff" stroke-width="4"/>
  <path class="cls-2" d="M53 51.71c0 4.44.64 13 9.29 18.12A14.31 14.31 0 0060 72.27a19.92 19.92 0 01-8.65-11.59c-1.76 5.27-4.58 9.17-8.67 11.61A21.35 21.35 0 0040.1 70c4.89-2.46 7.68-7 9-13.18l1.43.26c-.16-.89-.26-1.74-.33-2.54h-5.38v-2.83zM83.9 52.7v19.12h-3.08V70H68.37v1.9h-2.94V52.7zm-3.08 14.38V55.54H68.37v11.54z"/>
</svg>
