<svg id="img_2f_point001.svg" xmlns="http://www.w3.org/2000/svg" width="143" height="144" viewBox="0 0 143 144">
  <defs>
    <style>
      .cls-1 {
        fill: #ff8880;
        stroke: #fff;
        stroke-width: 4px;
      }

      .cls-2 {
        fill: #fff;
        fill-rule: evenodd;
      }
    </style>
  </defs>
  <ellipse id="active" class="cls-1" cx="71.5" cy="72" rx="69.5" ry="70"/>
  <path id="エント_ランス" data-name="エント ランス" class="cls-2" d="M832.189,9007.07v-9.86h5.1c0.754,0,1.716.06,2.548,0.13v-4.31a22.227,22.227,0,0,1-2.548.18H823.192a21.249,21.249,0,0,1-2.626-.18v4.31c0.676-.07,1.82-0.13,2.626-0.13h4.577v9.86h-6.215a15.666,15.666,0,0,1-2.7-.24v4.55a25.738,25.738,0,0,1,2.7-.13h17.135a23.393,23.393,0,0,1,2.574.13v-4.55a15.99,15.99,0,0,1-2.574.24h-6.5Zm17.861-15.63-2.99,3.2a55.245,55.245,0,0,1,6.526,5.69l3.225-3.3A52.633,52.633,0,0,0,850.05,8991.44Zm-3.848,17.27,2.678,4.16a27.762,27.762,0,0,0,9.309-3.44,28.059,28.059,0,0,0,10.114-9.85l-2.444-4.45a25.077,25.077,0,0,1-9.932,10.4A26.616,26.616,0,0,1,846.2,9008.71Zm46.8-7.05a86.232,86.232,0,0,0-10.738-3.93v-3.56a30.911,30.911,0,0,1,.26-3.38H877.61a18.179,18.179,0,0,1,.312,3.38v14.85a29.075,29.075,0,0,1-.312,3.92h4.941c-0.13-1.17-.286-3.22-0.286-3.92v-6.68a79.887,79.887,0,0,1,8.944,3.71Zm-54.834,23.29a6.112,6.112,0,0,1-2.184.31H823.608c-0.884,0-2.106-.07-3.3-0.18v4.06c1.17-.11,2.652-0.13,3.3-0.13h11.831a10.3,10.3,0,0,1-2.418,3.77,17.772,17.772,0,0,1-8.945,4.44l3.146,3.57a18.613,18.613,0,0,0,13.157-12.85,10.249,10.249,0,0,1,.572-1.25Zm-15.419-2.16c0.78-.07,2.028-0.1,2.912-0.1h9.8c0.988,0,2.392.05,3.12,0.1v-4.05a30.341,30.341,0,0,1-3.068.15h-9.855a25.913,25.913,0,0,1-2.912-.15v4.05Zm27.3-3.95-2.99,3.2a55.245,55.245,0,0,1,6.526,5.69l3.225-3.3A52.633,52.633,0,0,0,850.05,9018.84Zm-3.848,17.27,2.678,4.16a27.762,27.762,0,0,0,9.309-3.44,28.059,28.059,0,0,0,10.114-9.85l-2.444-4.45a25.077,25.077,0,0,1-9.932,10.4A26.616,26.616,0,0,1,846.2,9036.11Zm43.5-16.75a10.927,10.927,0,0,1-3.12.39H877.9a30.89,30.89,0,0,1-3.328-.21v4.48c0.728-.06,2.158-0.21,3.328-0.21h8.087a19.046,19.046,0,0,1-3.64,5.87,28.893,28.893,0,0,1-10.635,7.31l3.276,3.41a34.972,34.972,0,0,0,9.543-7.1,51.831,51.831,0,0,1,6.214,7.12l3.614-3.14a69.658,69.658,0,0,0-7.072-7.26,40.431,40.431,0,0,0,3.926-6.86,14.745,14.745,0,0,1,1.066-1.9Z" transform="translate(-785 -8944)"/>
</svg>
