<svg id="img_1f_point003.svg" data-name="img 1f point003.svg" xmlns="http://www.w3.org/2000/svg" viewBox="0 0 143 144">
  <defs>
    <style>
      .cls-2{fill:#fff}
    </style>
  </defs>
  <ellipse id="active" cx="71.5" cy="72" rx="69.5" ry="70" fill="#ff8880" stroke="#fff" stroke-width="4"/>
  <path class="cls-2" d="M42.61 78.12a30.24 30.24 0 006.88 2.3 15.12 15.12 0 00-2.16 2.79 27.09 27.09 0 01-7.68-3.55v3.69h-3.48v-3.57a27.77 27.77 0 01-7.82 3.5 18.22 18.22 0 00-2.21-2.86 31.21 31.21 0 007.27-2.3h-6.36v-2.74h9.12v-.67h-6.45v-6.29c-.29.24-.6.51-.92.75a11.46 11.46 0 00-2.44-2.38 18.65 18.65 0 005.76-6.26l3.57.72c-.36.6-.74 1.2-1.15 1.8h2.69a20.19 20.19 0 001-2.48l3.94.46c-.39.72-.8 1.39-1.2 2h6.76v2.66H40.3v.65h6.07v2.21H40.3v.67h6.07v2.21H40.3v.67h8v2.59h-8.6v.67h9.24v2.74zM37 65.71h-4v.65h4zm0 2.86h-4v.67h4zm-4 3.55h4v-.67h-4zM73.4 61.56v21.77h-3.65v-.91H56v.91h-3.46V61.56zm-3.65 17.52V64.89H56v14.19zm-.6-8.81h-2.33v5.33c0 1.46-.26 2.23-1.22 2.69a9.37 9.37 0 01-3.87.48 12.42 12.42 0 00-.88-2.91h2.32c.32 0 .44-.09.44-.38v-5.21h-6.89v-2.93h6.89v-2h3.21v2h2.33zm-9.31.17a14.19 14.19 0 012.52 3.67l-2.57 1.44a14.4 14.4 0 00-2.33-3.79zM95.41 65.83v1.56h3.45v2.79h-3.45V74h-3.56v1h5.93v4.51c0 1.42-.24 2.23-1.2 2.71a8 8 0 01-3.53.48 11.91 11.91 0 00-.88-3h1.82c.26 0 .36-.07.36-.31V78h-2.5v5.4h-3.43V78h-2.33v4.7h-3.38V75h5.71v-1H85v-3.82h-2.8v-2.79H85v-1.56h-3.25v3.58c0 4-.39 10.17-2.64 14a13.76 13.76 0 00-2.86-1.92c2-3.41 2.16-8.5 2.16-12v-6.76h8.45v-2.16h3.65v2.16H99v3.1zm-3.39 0h-3.84v1.56H92zm0 4.35h-3.84v1.1H92zM111.34 77h-5.28l-1 4.11h-4.37l5.54-17.86h5.14l5.55 17.86h-4.52zm-.81-3.31l-.39-1.51c-.48-1.78-.94-3.92-1.41-5.74h-.1c-.43 1.87-.91 4-1.37 5.74l-.38 1.51z"/>
</svg>
