<svg xmlns="http://www.w3.org/2000/svg" width="124" height="124">
  <circle data-name="楕円形 13" cx="62" cy="62" r="60" fill="#0054a5" stroke="#fff" stroke-width="4"/>
  <path d="M27 61.64h4.159v.95H27v-.95zm4.159-4.36H27v-.9h4.159v.9zm0 2.64H27V59h4.159v.92zm10.627 7.6v-2.09h-8.647v-.86h8.075v-1.98h-7.547v-.95h5.853v-1.72h-5.853V59H39.5v-1.72h-5.831v-.9h6.909v-2.02H34c.4-.62.814-1.32 1.188-2.03l-2.948-.35a16.556 16.556 0 01-.968 2.38h-3.125c.44-.64.836-1.26 1.188-1.89l-2.706-.51a17.7 17.7 0 01-5.215 5.98 8.457 8.457 0 011.849 1.76c.44-.35.858-.7 1.254-1.07v5.94h6.051v.86H22.03v2.09h6.557a26.885 26.885 0 01-7.283 2.7 14.164 14.164 0 011.673 2.16 24.884 24.884 0 007.591-3.63v3.76h2.574v-3.85a24.59 24.59 0 007.547 3.61 10.217 10.217 0 011.628-2.09 26.145 26.145 0 01-7.041-2.66h6.513zm7.676-5.66a13.046 13.046 0 012.288 3.68l1.959-1.08a13.632 13.632 0 00-2.443-3.59zm10.892-3.7h-2.443v-2.17h-2.42v2.17h-7.063v2.23h7.063v5.63c0 .29-.088.37-.4.37-.33.03-1.408.03-2.354-.02a9.3 9.3 0 01.66 2.2 9.275 9.275 0 003.5-.37c.77-.35 1.012-.95 1.012-2.14v-5.67h2.443v-2.23zM47.592 69.1V55.44h13.444V69.1H47.592zm-2.6-16.17v19.56h2.6v-.86h13.444v.86h2.728V52.93H45zm35.84 8.82H76.52V60.3h4.312v1.45zm2.531-5.19h-2.531v1.63H76.52v-1.63H74.1v1.63h-2.794v2.11H74.1v3.5h3.345v1.25h-5.413v6.82h2.531v-4.6h2.882v5.28h2.574v-5.28h3.015v2.05c0 .2-.088.26-.352.26a16.45 16.45 0 01-1.959-.02 9.012 9.012 0 01.7 2.27 8.42 8.42 0 003.191-.35c.814-.38.99-1.02.99-2.12v-4.31h-5.589V63.8h3.345v-3.5h3.3v-2.11h-3.3v-1.63zm-4.533-2.51V52h-2.728v2.05h-7.833v6.16c0 3.21-.132 7.79-1.959 10.91a9.74 9.74 0 012.135 1.43c2-3.38 2.332-8.8 2.332-12.34v-3.85h16.062v-2.31H78.83zm11.395 16.57h5.808c3.587 0 6.315-1.52 6.315-4.8a3.7 3.7 0 00-3.058-3.85v-.11a3.685 3.685 0 002.222-3.52c0-3.04-2.552-4-5.9-4h-5.39v16.28zm3.256-9.66v-4.14h1.936c1.959 0 2.927.57 2.927 2 0 1.3-.9 2.14-2.971 2.14h-1.892zm0 7.15v-4.73h2.266c2.245 0 3.433.66 3.433 2.24 0 1.7-1.21 2.49-3.433 2.49h-2.266z" fill="#fff" fill-rule="evenodd"/>
</svg>
