<svg data-name="img 1f point003.svg" xmlns="http://www.w3.org/2000/svg" viewBox="0 0 143 144">
  <ellipse cx="71.5" cy="72" rx="69.5" ry="70" fill="#ff8880" stroke="#fff" stroke-width="4"/>
  <path d="M52 60.77v3.84h5.74c.08.81.19 1.67.34 2.55l-1.87-.34c-1.29 6.61-4.33 11.55-9.58 14.18a27.39 27.39 0 013.46 3.09c4.18-2.57 7.25-6.68 9.23-12.11A21.33 21.33 0 0068.5 84a19.59 19.59 0 013-3.33c-9.28-5.41-10-14.79-10-19.91zm27 16.92v-12h13v12zm-4-15.86v21.82h4v-2.06h13v2.06h4.16V61.83z" fill="#fff" fill-rule="evenodd"/>
</svg>
