<svg id="img_1f_point003.svg" data-name="img 1f point003.svg" xmlns="http://www.w3.org/2000/svg" viewBox="0 0 143 144">
  <defs>
    <style>
      .cls-2{fill:#fff}
    </style>
  </defs>
  <ellipse id="active" cx="71.5" cy="72" rx="69.5" ry="70" fill="#ff8880" stroke="#fff" stroke-width="4"/>
  <path class="cls-2" d="M46 60l-2.83.72v5c0 1.64-.29 2.5-1.22 3a7.91 7.91 0 01-4 .65 12 12 0 00-1-3.29h2.16c.31 0 .46-.12.46-.46v-4.06l-2.18.53-.92-3.48c.89-.17 1.95-.39 3.1-.63v-3.57H36.8v-3.29h2.83V46.7h3.55v4.42h2.38v3.29h-2.38v2.78l2.4-.55zm13.16-8.07h-3.6v13.21c0 1.89-.41 2.92-1.64 3.53s-2.88.69-5.11.69a14.27 14.27 0 00-1.39-3.82c1.34.12 3.17.1 3.67.1s.67-.14.67-.58V51.91h-5.67v-3.5h13.08zM73.4 46.73a22.48 22.48 0 0010.17 8.11A16.91 16.91 0 0081.29 58a31.4 31.4 0 01-3.43-2.11v1.59h-12v-1.73A30.41 30.41 0 0162.31 58a15.09 15.09 0 00-2.18-2.83 24.61 24.61 0 009.62-8.4zM64.11 59.5h15.65v10h-3.6v-.84h-8.62v.84h-3.43zm3.43 3v3.12h8.62v-3.08zm8.38-8.13a23.67 23.67 0 01-4.2-4.28 23.31 23.31 0 01-4.11 4.28zM103.57 52.58l2.52-.19v3.51h-2.55l-1.39.08a34.86 34.86 0 01-.33 4.63c-.27 1.37-.92 1.68-2.21 1.68a35.87 35.87 0 01-3.82-.39l.07-3.14a17.08 17.08 0 002.09.26c.41 0 .6-.07.65-.48.07-.57.12-1.39.14-2.3-1.92.17-4 .36-5.83.55v5.11c0 2.21.34 2.52 3.6 2.52a44.57 44.57 0 007.13-.64l-.15 4c-1.6.19-4.51.38-6.69.38-6.53 0-7.39-1.32-7.49-5.62v-5.32l-1.08.12c-.77.09-2.5.36-3.12.45l-.36-3.65c.62 0 1.84 0 3.24-.16l1.32-.12V52a21.62 21.62 0 00-.22-3h4.06a18.9 18.9 0 00-.15 2.74v1.76c1.85-.17 3.92-.37 5.86-.53v-2.28a23.18 23.18 0 00-.19-2.4h3.86c-.07.36-.14 1.53-.17 2.23v2.16zM46.22 79.63a13.45 13.45 0 00-1 1.75 36.89 36.89 0 01-3.62 6.34 63.39 63.39 0 016.53 6.7l-3.34 2.9a47.56 47.56 0 00-5.73-6.58 32.49 32.49 0 01-8.81 6.56l-3-3.15a26.79 26.79 0 009.82-6.74A17.74 17.74 0 0040.41 82h-7.47c-1.08 0-2.4.15-3.07.19v-4.14a28.52 28.52 0 003.07.19h8a10.22 10.22 0 002.88-.36zM50.18 87c1-1 2.81-3.24 4.53-5.3 1.52-1.8 3-2 5.09-.19a56.88 56.88 0 014.87 4.82c1.61 1.73 4.25 4.54 6 6.5l-3.15 3.41c-1.46-1.87-3.62-4.65-5-6.26a57.22 57.22 0 00-4.27-4.68c-.74-.65-1.22-.67-1.82.12-.84 1.1-2.4 3.33-3.31 4.63-.58.84-1.18 1.75-1.64 2.45L48 88.92A26.91 26.91 0 0050.18 87zm16.22-9a3.23 3.23 0 110 6.45 3.23 3.23 0 010-6.45zm0 4.63a1.39 1.39 0 10-1.4-1.46 1.39 1.39 0 001.4 1.39zM73 84.5c1 .08 3 .17 4.15.17H89.9c1.08 0 2.25-.12 2.95-.17v4.59c-.62 0-2-.15-2.95-.15H77.15c-1.36 0-3.16.08-4.15.15zM113.8 79.63a13.55 13.55 0 00-1 1.75 37 37 0 01-3.63 6.34 63.39 63.39 0 016.53 6.7l-3.33 2.9a48.34 48.34 0 00-5.74-6.58 32.19 32.19 0 01-8.81 6.56l-3-3.15a26.75 26.75 0 009.81-6.74A17.54 17.54 0 00108 82h-7.46c-1.08 0-2.4.15-3.07.19v-4.14a28.36 28.36 0 003.07.19h8a10.27 10.27 0 002.88-.36z"/>
</svg>
