<svg id="img_2f_point004.svg" xmlns="http://www.w3.org/2000/svg" width="124" height="124" viewBox="0 0 124 124">
  <defs>
    <style>
      .cls-1 {
        fill: #0054a5;
        stroke: #fff;
        stroke-width: 4px;
      }

      .cls-2 {
        fill: #fff;
        fill-rule: evenodd;
      }
    </style>
  </defs>
  <circle id="楕円形_13" data-name="楕円形 13" class="cls-1" cx="62" cy="62" r="60"/>
  <path id="集団席B" class="cls-2" d="M829,8578.64h4.159v0.95H829v-0.95Zm4.159-4.36H829v-0.9h4.159v0.9Zm0,2.64H829V8576h4.159v0.92Zm10.627,7.6v-2.09h-8.647v-0.86h8.075v-1.98h-7.547v-0.95h5.853v-1.72h-5.853V8576H841.5v-1.72h-5.831v-0.9h6.909v-2.02H836c0.4-.62.814-1.32,1.188-2.03l-2.948-.35a16.556,16.556,0,0,1-.968,2.38h-3.125c0.44-.64.836-1.26,1.188-1.89l-2.706-.51a17.7,17.7,0,0,1-5.215,5.98,8.457,8.457,0,0,1,1.849,1.76c0.44-.35.858-0.7,1.254-1.07v5.94h6.051v0.86h-8.538v2.09h6.557a26.885,26.885,0,0,1-7.283,2.7,14.164,14.164,0,0,1,1.673,2.16,24.884,24.884,0,0,0,7.591-3.63v3.76h2.574v-3.85a24.59,24.59,0,0,0,7.547,3.61,10.217,10.217,0,0,1,1.628-2.09,26.145,26.145,0,0,1-7.041-2.66h6.513Zm7.676-5.66a13.046,13.046,0,0,1,2.288,3.68l1.959-1.08a13.632,13.632,0,0,0-2.443-3.59Zm10.892-3.7h-2.443v-2.17h-2.42v2.17h-7.063v2.23h7.063v5.63c0,0.29-.088.37-0.4,0.37-0.33.03-1.408,0.03-2.354-.02a9.3,9.3,0,0,1,.66,2.2,9.275,9.275,0,0,0,3.5-.37c0.77-.35,1.012-0.95,1.012-2.14v-5.67h2.443v-2.23Zm-12.762,10.94v-13.66h13.444v13.66H849.592Zm-2.6-16.17v19.56h2.6v-0.86h13.444v0.86h2.728v-19.56H847Zm35.84,8.82h-4.312v-1.45h4.312v1.45Zm2.531-5.19h-2.531v1.63h-4.312v-1.63H876.1v1.63h-2.794v2.11H876.1v3.5h3.345v1.25h-5.413v6.82h2.531v-4.6h2.882v5.28h2.574v-5.28h3.015v2.05c0,0.2-.088.26-0.352,0.26a16.45,16.45,0,0,1-1.959-.02,9.012,9.012,0,0,1,.7,2.27,8.42,8.42,0,0,0,3.191-.35c0.814-.38.99-1.02,0.99-2.12v-4.31h-5.589v-1.25h3.345v-3.5h3.3v-2.11h-3.3v-1.63Zm-4.533-2.51V8569h-2.728v2.05h-7.833v6.16c0,3.21-.132,7.79-1.959,10.91a9.74,9.74,0,0,1,2.135,1.43c2-3.38,2.332-8.8,2.332-12.34v-3.85h16.062v-2.31h-8.009Zm11.395,16.57h5.808c3.587,0,6.315-1.52,6.315-4.8a3.7,3.7,0,0,0-3.058-3.85v-0.11a3.685,3.685,0,0,0,2.222-3.52c0-3.04-2.552-4-5.9-4h-5.39v16.28Zm3.256-9.66v-4.14h1.936c1.959,0,2.927.57,2.927,2,0,1.3-.9,2.14-2.971,2.14h-1.892Zm0,7.15v-4.73h2.266c2.245,0,3.433.66,3.433,2.24,0,1.7-1.21,2.49-3.433,2.49h-2.266Z" transform="translate(-802 -8517)"/>
</svg>
