<svg id="img_2f_point003.svg" xmlns="http://www.w3.org/2000/svg" width="124" height="124" viewBox="0 0 124 124">
  <defs>
    <style>
      .cls-1 {
        fill: #0054a5;
        stroke: #fff;
        stroke-width: 4px;
      }

      .cls-2 {
        fill: #fff;
        fill-rule: evenodd;
      }
    </style>
  </defs>
  <circle id="楕円形_13" data-name="楕円形 13" class="cls-1" cx="62" cy="62" r="60"/>
  <path id="集団席A" class="cls-2" d="M569.44,8278.64H573.6v0.95H569.44v-0.95Zm4.159-4.36H569.44v-0.9H573.6v0.9Zm0,2.64H569.44V8276H573.6v0.92Zm10.627,7.6v-2.09h-8.647v-0.86h8.075v-1.98h-7.547v-0.95h5.853v-1.72h-5.853V8276h5.831v-1.72h-5.831v-0.9h6.909v-2.02h-6.579c0.4-.62.814-1.32,1.188-2.03l-2.948-.35a16.556,16.556,0,0,1-.968,2.38h-3.125c0.441-.64.837-1.26,1.189-1.89l-2.707-.51a17.7,17.7,0,0,1-5.215,5.98,8.435,8.435,0,0,1,1.849,1.76c0.44-.35.858-0.7,1.254-1.07v5.94h6.051v0.86h-8.537v2.09h6.557a26.9,26.9,0,0,1-7.284,2.7,14.039,14.039,0,0,1,1.673,2.16,24.884,24.884,0,0,0,7.591-3.63v3.76h2.574v-3.85a24.59,24.59,0,0,0,7.547,3.61,10.187,10.187,0,0,1,1.629-2.09,26.139,26.139,0,0,1-7.042-2.66h6.513Zm7.676-5.66a13.052,13.052,0,0,1,2.289,3.68l1.958-1.08a13.651,13.651,0,0,0-2.442-3.59Zm10.892-3.7h-2.442v-2.17h-2.421v2.17h-7.063v2.23h7.063v5.63c0,0.29-.088.37-0.4,0.37-0.33.03-1.408,0.03-2.354-.02a9.3,9.3,0,0,1,.66,2.2,9.275,9.275,0,0,0,3.5-.37c0.77-.35,1.013-0.95,1.013-2.14v-5.67h2.442v-2.23Zm-12.762,10.94v-13.66h13.444v13.66H590.032Zm-2.6-16.17v19.56h2.6v-0.86h13.444v0.86H606.2v-19.56H587.436Zm35.84,8.82h-4.313v-1.45h4.313v1.45Zm2.53-5.19h-2.53v1.63h-4.313v-1.63h-2.42v1.63h-2.795v2.11h2.795v3.5h3.344v1.25h-5.413v6.82h2.531v-4.6h2.882v5.28h2.574v-5.28h3.015v2.05c0,0.2-.088.26-0.352,0.26a16.434,16.434,0,0,1-1.958-.02,9.012,9.012,0,0,1,.7,2.27,8.418,8.418,0,0,0,3.19-.35c0.814-.38.99-1.02,0.99-2.12v-4.31h-5.589v-1.25h3.345v-3.5h3.3v-2.11h-3.3v-1.63Zm-4.533-2.51V8269h-2.728v2.05h-7.833v6.16c0,3.21-.132,7.79-1.959,10.91a9.717,9.717,0,0,1,2.135,1.43c2-3.38,2.332-8.8,2.332-12.34v-3.85h16.062v-2.31h-8.009Zm14.453,9.86,0.484-1.78c0.484-1.7.968-3.55,1.386-5.33h0.088c0.485,1.76.925,3.63,1.431,5.33l0.484,1.78h-3.873Zm5.721,6.71h3.41l-5.236-16.28h-3.829l-5.215,16.28h3.3l1.144-4.18H640.3Z" transform="translate(-544 -8217)"/>
</svg>
