<svg xmlns="http://www.w3.org/2000/svg" width="969.91" height="507.88" viewBox="0 0 969.91 507.88">
  <defs>
    <style>
      .cls-1 {
        fill: #0053a9;
        fill-rule: evenodd;
      }
    </style>
  </defs>
  <path id="txt-main.svg" class="cls-1" d="M336.084,3143.48c5.524,0,10.9-.29,16.421-0.29,3.345,0,3.635,1.16,3.635,5.07v5.95c0,3.91-.29,5.07-3.486,5.07-5.523,0-11.046-.29-16.57-0.29H271.407c-4.36,0-6.249,2.03-6.249,3.05,0,0.87.435,1.01,2.615,1.01,3.344,0,6.684.29,10.173,0.29H324.31c4.362,0,8.576-.29,12.79-0.29,2.909,0,3.489,1.16,3.489,4.21v6.23c0,3.05-.58,4.21-3.343,4.21-4.36,0-8.574-.15-12.936-0.15H277.946c-4.36,0-8.573.15-12.936,0.15-3.34,0-3.34-1.74-3.34-5.37v-1.3c0-.87,0-2.61-1.309-2.61-0.874,0-1.6,1.01-2.18,1.74-2.035,2.32-10.611,11.31-13.371,11.31-2.327,0-13.809-6.38-13.809-10.3,0-1.45,2.179-2.75,3.633-4.06,10.027-8.12,21.074-22.32,25.581-34.36,0.581-1.45.871-2.75,2.325-2.75,2.18,0,14.97,3.48,18.024,4.2,1.454,0.44,4.5,1.02,4.5,2.61,0,1.31-2.035,1.89-3.05,2.18-1.309.43-3.779,1.45-3.779,3.19a1.37,1.37,0,0,0,1.6,1.3h56.249Zm-42.149,55.24c-0.436,0-2.325,0-2.325.87,0,0.72,7.993,4.79,9.156,5.36,1.451,0.73,5.814,2.76,5.814,4.5,0,1.16-1.31,1.59-2.324,1.59-2.039.15-2.473,0.15-3.49,2.18a94.032,94.032,0,0,1-4.942,8.12,6.383,6.383,0,0,0-1.6,3.48c0,2.17,3.053,4.2,4.652,5.22,2.615,1.74,8.719,6.09,11.046,7.97,1.016,0.87,2.18,1.74,2.18,3.34,0,2.6-4.943,14.93-11.046,14.93-1.745,0-3.2-1.45-4.507-2.61-5.085-4.21-10.173-8.7-13.081-11.02-1.451-1.16-2.325-1.6-3.489-1.6a3.6,3.6,0,0,0-2.615,1.45c-3.488,3.63-27.18,20.01-31.394,20.01-3.779,0-11.917-12.61-11.917-15.36,0-1.6,2.18-2.33,3.489-2.9,3.34-1.45,23.253-11.89,23.253-14.94,0-2.46-12.646-6.96-14.97-7.83-1.454-.43-3.343-1.16-3.343-2.9,0-2.75,8.285-12.9,11.046-12.9,2.908,0,14.244,5.51,17.3,7.1a7.091,7.091,0,0,0,3.779,1.45c2.179,0,3.634-2.75,4.795-4.78,1.018-1.74,3.923-6.67,3.923-8.41,0-2.17-2.034-2.32-3.633-2.32H262.54c-6.1,0-12.355.29-18.6,0.29-1.889,0-3.488-.58-3.488-3.91v-7.54c0-4.21.29-5.66,3.633-5.66,6.252,0,12.356.44,18.459,0.44h61.48c4.359,0,8.576-.29,12.79-0.29,5.814,0,6.978,1.88,6.978,7.39,0,5.08-.436,18.27-0.436,27.26a160.827,160.827,0,0,0,1.161,20.44c0.145,1.02.29,3.34,1.6,3.34,2.615,0,3.344-12.62,3.344-14.79,0.145-2.61,1.015-3.48,3.924-3.48,4.069,0,11.046,2.17,11.046,6.96a54.057,54.057,0,0,1-.581,6.52c-1.6,11.46-4.942,27.55-19.622,27.55-9.447,0-14.68-5.37-17.44-13.92-4.508-13.48-4.942-30.88-4.942-45.09v-1.16a4.042,4.042,0,0,0-4.07-4.35H293.935ZM493.5,3169.29c6.976,7.1,10.465,17.25,10.465,27.11,0,14.35-7.122,27.26-18.023,36.39-7.7,6.38-16.714,10.59-26.6,13.77-5.233,1.74-17.878,4.93-22.963,4.93-3.344,0-4.652-2.46-5.958-5.07-1.454-3.04-4.507-10.73-4.507-13.77s3.2-3.48,5.377-3.63c18.314-1.16,49.418-10.15,49.418-32.76,0-10.88-8.286-16.24-18.314-16.24-19.332,0-40.4,10.58-56.975,19.72a8.186,8.186,0,0,1-4.214,1.44c-6.4,0-15.117-15.22-15.117-21.02,0-2.03,1.89-2.61,3.634-3.19,12.792-3.77,25.434-8.26,38.225-12.61,11.046-3.77,22.092-6.67,33.864-6.67C473.442,3157.69,485.068,3160.73,493.5,3169.29Zm14.824-9.57c0,2.46-6.828,8.26-8.428,8.26a2.194,2.194,0,0,1-1.6-.87,152.486,152.486,0,0,0-11.627-12.03c-1.019-.87-1.454-1.45-1.454-2.03,0-2.03,7.413-7.68,8.867-7.68C495.386,3145.37,508.321,3157.4,508.321,3159.72Zm1.89-25.81c2.182,1.74,12.355,10.73,12.355,12.91,0,2.61-6.539,8.55-8.283,8.55-0.583,0-1.019-.43-2.183-1.74-4.069-4.5-6.974-7.25-11.336-11.31-1.016-.87-1.306-1.3-1.306-1.88,0-1.89,7.268-7.69,8.863-7.69C508.76,3132.75,509.2,3133.04,510.211,3133.91Zm93.028,7.83c1.6,4.93,2.615,5.65,4.5,5.65,1.309,0,5.378-2.02,8.138-3.47,2.328-1.31,4.073-2.03,5.379-2.03,3.2,0,8.575,12.03,8.575,15.51,0,2.32-1.889,3.48-3.633,4.49a72.693,72.693,0,0,1-9.012,4.35c-1.163.44-3.053,1.16-3.053,2.47,0,0.87.584,2.9,2.183,2.9,2.9,0,12.061-5.51,14.825-7.25a10.264,10.264,0,0,1,4.5-1.89c2.18,0,3.924,2.9,5.378,5.22,2.47,3.92,4.943,7.83,4.943,10.3,0,2.32-2.763,3.77-7.851,6.09-3.05,1.45-6.249,2.9-9.3,4.2-1.744.73-2.9,1.74-2.9,3.63,0,1.16.581,2.32,1.744,4.49a117.533,117.533,0,0,0,11.192,17.69c1.6,1.88,4.069,4.78,4.069,7.39,0,3.92-11.772,12.33-15.551,12.33-1.309,0-2.183-.73-4.072-2.61-5.668-5.37-14.825-8.99-23.834-8.99-4.217,0-10.9,1.3-10.9,6.67,0,7.97,13.226,9.28,19.04,9.28a92.722,92.722,0,0,0,9.591-.73c1.6-.14,4.07-0.43,4.8-0.43,3.489,0,4.214,2.32,4.214,8.41,0,13.77-2.47,13.91-6.832,13.91-7.7,0-15.7,0-23.252-1.3-15.116-2.75-28.2-11.74-28.2-28.42,0-17.54,13.806-25.95,29.941-25.95a47.346,47.346,0,0,1,7.847.73h0.581a2.2,2.2,0,0,0,2.179-2.03,9.9,9.9,0,0,0-1.6-3.34,3.533,3.533,0,0,0-3.053-2.03,8.864,8.864,0,0,0-1.454.29c-8.284,2.47-29.36,6.52-37.789,6.52-2.618,0-3.488-1.59-4.362-4.2-1.306-3.77-2.76-9.71-2.76-13.63,0-2.03.581-3.04,6.54-3.33,6.686-.29,23.4-1.89,29.649-3.77a2.184,2.184,0,0,0,1.889-2.18c0-1.16-1.015-2.61-2.179-2.61a15.533,15.533,0,0,0-1.89.44c-4.359,1.01-14.1,2.75-18.313,2.75-2.47,0-3.195-1.45-4.069-3.62-1.161-2.9-3.343-10.01-3.343-12.91,0-2.17,1.309-3.77,5.232-3.91,2.18-.15,6.107-0.44,9.013-0.87,2.614-.44,4.213-1.31,4.213-3.48,0-1.16-1.306-3.19-2.035-4.35-0.871-1.3-3.049-4.64-3.049-6.23,0-2.32,4.5-3.63,6.393-4.21,3.2-1.01,8.721-2.75,11.917-2.75C601.2,3134.93,601.785,3137.1,603.239,3141.74ZM738.7,3243.66c0,4.21-10.466,15.37-14.535,15.37-1.454,0-2.473-1.45-3.2-2.46a114.854,114.854,0,0,0-23.837-21.31,2.631,2.631,0,0,1-1.454-2.03c0-2.76,10.466-14.07,13.664-14.07C712.248,3219.16,738.7,3240.04,738.7,3243.66Zm-450.436,88.73c1.89,0.57,3.344,1.16,3.344,2.02a1.377,1.377,0,0,1-1.019,1.17c-2.615,1.45-2.906,4.05-3.344,6.67-3.485,17.83-4.649,36.1-4.649,54.22,0,11.31,0,23.2,11.627,23.2,9.156,0,17.878-5.37,23.4-12.33a46.658,46.658,0,0,0,9.3-21.17c0.435-2.75,1.016-5.36,3.488-5.36,3.2,0,7.559,3.91,9.883,5.94,2.615,2.33,6.977,6.24,6.977,9.86,0,4.35-4.072,13.92-6.252,17.84-9.3,17.11-25.726,28.42-45.635,28.42-10.321,0-21.367-3.49-28.051-11.89-7.268-9.28-8.141-24.65-8.141-36.25,0-16.67,1.454-33.35,2.618-50.16,0.29-3.34.435-7.98,0.435-11.31,0-3.19,0-5.08,2.47-5.08C267.338,3328.18,284.2,3331.23,288.266,3332.39Zm27.906,10.58c2.034,1.88,11.337,11.16,11.337,13.48,0,2.61-7.123,7.98-8.722,7.98-0.871,0-1.745-1.16-2.179-1.89-3.2-4.06-6.685-7.83-10.174-11.6-0.582-.58-1.453-1.45-1.453-2.17,0-2.18,7.7-7.25,9.156-7.25C314.863,3341.52,315.737,3342.54,316.172,3342.97Zm16.134-12.32c1.744,1.59,3.634,3.62,5.669,5.79,3.194,3.48,5.958,6.82,5.958,7.98,0,2.46-6.977,7.97-8.577,7.97-0.436,0-1.161-.43-2.18-1.74a124.422,124.422,0,0,0-10.465-11.59,4.031,4.031,0,0,1-1.451-2.18c0-2.32,7.7-7.25,9.156-7.25A3.089,3.089,0,0,1,332.306,3330.65Zm160.9,61.76c0,18.56-13.081,30.59-29.36,36.97-5.375,2.18-17.439,5.95-22.962,5.95-2.76,0-3.924-1.74-5.089-3.92-1.306-2.61-3.633-8.7-3.633-11.6,0-2.32,2.327-3.04,5.523-3.33,13.374-1.31,36.192-7.4,36.192-24.22,0-7.83-6.1-11.45-13.226-11.45-12.935,0-30.524,7.39-41.57,14.06a11.458,11.458,0,0,1-5.375,1.89c-4.943,0-12.065-11.89-12.065-16.53,0-2.46,1.745-2.9,6.1-4.06,2.763-.72,7.7-2.61,10.61-3.62,12.356-4.35,28.78-10.44,41.861-10.44C478.671,3362.11,493.206,3372.98,493.206,3392.41Zm125.584-68.43c2.47,2.61,4.942,5.21,7.412,7.68l1.6,1.6c2.9,3.04,8.429,8.69,8.429,10.29,0,0.87-.871,1.02-2.615,1.02a5.4,5.4,0,0,0-3.634,1.45c-6.249,4.63-12.065,9.27-18.169,14.2q-10.024,8.265-19.619,16.96c-1.309,1.31-2.763,2.76-2.763,4.79,0,2.46,3.488,6.23,5.959,8.85a12.693,12.693,0,0,0,1.309,1.44c8.137,8.12,16.714,15.81,25.29,23.49,4.649,4.06,11.917,10.73,11.917,13.78,0,4.49-13.081,16.67-17.149,16.67-0.875,0-2.619-1.3-4.508-3.62-7.7-9.58-18.456-20.16-28.486-30.16-5.233-5.22-11.917-11.89-16.134-17.55-3.2-4.34-5.085-8.55-5.085-13.91a18.185,18.185,0,0,1,3.343-10.88c3.924-5.65,14.387-13.34,20.2-18.26,9.447-7.98,20.2-17.12,27.615-26.97,0.729-1.02,1.455-2.18,2.619-2.18A3.769,3.769,0,0,1,618.79,3323.98Zm127.179,12.17c2.035,0.88,2.76,1.45,2.76,2.47,0,0.87-.435,1.01-1.164,1.3-3.634,1.6-5.084,5.22-6.393,8.56-2.325,5.94-4.653,15.22-4.653,21.6,0,0.87,0,2.47,1.309,2.47,0.874,0,1.455-.73,2.325-2.76,0.728-1.59,1.6-3.48,3.2-3.48,1.453,0,8.138,4.21,8.138,6.53a7.6,7.6,0,0,1-.581,2.46c-3.344,8.12-8.722,21.31-8.722,29.58v3.62c0,3.34-3.049,4.79-5.813,5.8a25.2,25.2,0,0,1-8.574,1.89c-4.507,0-5.813-3.34-6.977-6.82-3.343-10.15-4.942-23.92-4.942-34.65,0-9.57,1.164-22.47,3.488-31.89,0.874-3.77,1.89-7.69,2.764-11.6,0.58-2.47.87-4.21,2.18-4.21C727.073,3327.02,740.153,3333.69,745.969,3336.15Zm34.59-10.58c3.2-.58,7.848-1.74,11.047-1.74,2.763,0,3.343,1.02,4.213,4.64,3.2,12.91,4.653,30.74,4.653,44.22,0,24.94-4.214,46.4-22.093,65.1-2.762,2.9-8.866,9.13-12.935,9.13-2.325,0-6.543-3.91-8.283-5.51-3.634-3.33-6.687-6.08-6.687-8.55,0-.87.58-1.6,2.469-2.9a53.942,53.942,0,0,0,18.75-21.6c4.942-10.59,6.106-21.75,6.106-33.2a181.327,181.327,0,0,0-5.378-43.21,10.851,10.851,0,0,1-.146-2.17C772.275,3327.46,774.166,3326.88,780.559,3325.57Zm125.584,73.07c-0.875,0-2.908,0-2.908,1.31,0,0.87.583,1.16,1.744,1.16h35.172c4.5,0,9.012-.15,13.516-0.15s9.886,0.44,9.886,6.09c0,3.19-1.89,9.28-3.343,13.34-3.2,9.28-4.943,13.78-9.592,20.01a22.066,22.066,0,0,1-11.63,7.39c-3.2.87-11.192,1.45-15.115,1.45-3.05,0-7.993-.14-7.993-14.06,0-3.19.726-4.64,3.2-4.64s4.794,0.72,7.992.72a14.957,14.957,0,0,0,7.122-1.44c2.325-1.31,4.8-5.95,4.8-8.56,0-2.17-1.451-2.46-4.07-2.46H900.475c-3.054,0-3.925,2.17-4.8,4.49-3.489,8.7-4.07,9.57-6.539,9.57-3.053,0-9.741-2.03-12.791-3.19-1.744-.73-3.343-1.88-3.343-4.06a5.326,5.326,0,0,1,.725-2.46c1.164-2.18,5.233-11.17,5.233-13.2,0-.58-0.145-0.87-0.725-0.87a11.574,11.574,0,0,0-3.779,1.31c-3.343,1.45-14.1,6.38-17.3,6.38-5.085,0-9.447-11.02-9.447-14.79,0-2.32,1.744-2.76,5.524-3.77,0.728-.29,1.6-0.44,2.472-0.73,6.539-1.88,19.91-6.23,25.578-9.28a5.109,5.109,0,0,0,2.618-3.18,11.8,11.8,0,0,0,.145-2.18c0.145-1.88.145-3.19,2.76-3.19,1.164,0,3.634.29,4.8,0.44a18.24,18.24,0,0,0,2.76.14c3.928,0,12.066-5.94,12.066-6.81,0-.73-1.165-0.87-1.6-0.87H869.66c-6.1,0-12.207.43-18.458,0.43-3.2,0-3.489-1.59-3.489-5.94v-6.38c0-4.21.293-5.66,3.633-5.66,6.107,0,12.211.29,18.314,0.29h20.494a3.527,3.527,0,0,0,3.488-3.47v-0.44a3.529,3.529,0,0,0-3.488-3.48h-9.012c-4.5,0-9.157.29-13.662,0.29-3.2,0-3.633-1.74-3.633-5.08v-6.37c0-3.48.725-4.93,3.633-4.93,4.5,0,9.158.29,13.662,0.29h8.286c2.035,0,4.069-1.31,4.069-4.79,0-1.3-.145-3.33-0.29-4.78a3.615,3.615,0,0,1-.145-1.31c0-1.88,1.454-2.17,3.05-2.17,3.489,0,14.39.72,18.458,1.01,1.454,0.15,4.07-.14,4.07,2.18,0,1.01-.725,1.45-1.6,2.32a5.035,5.035,0,0,0-1.163,3.48c0,2.9,1.889,4.06,4.5,4.06,3.927,0,7.706-.29,11.629-0.29,3.489,0,3.78,1.45,3.78,5.36v5.51c0,3.62-.291,5.51-3.489,5.51-4.653,0-9.157-.29-13.809-0.29h-1.306a1.738,1.738,0,0,0-1.454,1.74v2.18a3.527,3.527,0,0,0,3.489,3.47h6.393c2.473,0,4.217-1.45,5.813-3.33,5.088-5.8,13.519-16.96,16.86-23.92,0.439-1.02.873-2.32,2.328-2.32,1.3,0,4.649,1.74,7.122,3.04,0.87,0.43,1.6.87,2.179,1.16s1.306,0.58,2.035,1.02c3.633,1.73,8.428,4.2,8.428,5.94,0,1.3-1.306,1.89-2.47,2.18-2.325.43-3.344,1.88-5.958,5.36-1.164,1.6-2.618,3.63-4.653,6.09-0.725.72-2.324,2.61-2.324,3.48,0,1.16.87,1.3,3.633,1.3,4.8,0,9.593-.29,14.535-0.29,3.344,0,3.634,1.45,3.634,5.66v6.38c0,4.35-.29,5.94-3.489,5.94-6.249,0-12.355-.43-18.6-0.43H939.281c-3.053,0-4.072.72-7.268,3.48-1.018.87-2.327,1.88-3.923,3.18-0.439.44-1.745,1.31-1.745,2.04a0.587,0.587,0,0,0,.726.58c1.309,0,11.191-3.48,13.226-4.06a8,8,0,0,1,2.763-1.02c1.889,0,3.05,1.6,7.267,6.82,1.162,1.45,2.47,3.04,4.069,5.07,0.726,1.01,2.47,2.9,2.47,4.06a1.371,1.371,0,0,1-1.454,1.45,27.732,27.732,0,0,1-4.794-.87,6.108,6.108,0,0,0-1.745-.29,27.272,27.272,0,0,0-3.343.43C932.449,3395.89,919.368,3397.48,906.143,3398.64Zm181.687-52.48c4.21,0,13.08,13.19,13.08,15.8,0,1.74-1.46,2.61-2.77,3.48-3.77,2.76-11.62,9.86-15.25,13.2-2.18,2.03-3.49,3.48-3.49,4.49,0,1.74,1.01,2.32,3.34,3.19,6.98,2.61,9.16,7.98,9.16,15.08a74.521,74.521,0,0,1-1.02,11.31,77.15,77.15,0,0,0-1.02,7.83c0,1.74.58,2.9,2.47,2.9,4.8,0,13.23-4.79,17.3-7.25,0.29-.15.73-0.44,1.16-0.73,2.33-1.45,5.67-3.48,7.7-3.48,1.46,0,1.75,1.45,1.89,2.61,0.44,2.76,1.02,11.75,1.02,14.5,0,5.08-.58,5.95-2.91,7.1-7.26,3.63-21.51,7.98-29.5,7.98-10.32,0-20.2-7.69-20.2-18.56,0-6.52,2.32-14.79,2.32-20.01,0-1.45-.58-2.9-2.32-2.9-11.49,0-32.41,32.34-36.34,37.26-2.47,3.2-3.92,5.22-5.23,5.22-3.92,0-17.01-10.14-17.01-15.07,0-1.6,1.75-3.77,7.42-8.41,3.63-3.05,17.87-18.27,24.41-25.52,5.67-6.38,11.48-12.61,17.3-18.85,0.73-.72,1.89-1.88,1.89-2.9a1.338,1.338,0,0,0-1.45-1.3c-0.59,0-8.72,2.46-10.18,2.9-2.9.72-10.76,3.04-13.37,3.04-1.45,0-2.62-.58-4.07-2.9-2.33-3.77-7.12-12.18-7.12-15.8,0-2.18,1.45-2.76,3.63-2.9,11.92-.73,25-3.34,36.78-5.8,1.3-.29,2.32-0.58,2.32-1.59s-0.73-1.46-2.04-1.89c-5.52-1.89-10.75-3.91-16.42-5.51-5.81-1.59-8.43-2.17-8.43-4.78,0-1.31,1.6-6.67,3.05-10.59,2.18-5.94,2.47-6.38,4.22-6.38a15.3,15.3,0,0,1,4.94,1.16c6.54,2.18,13.23,4.5,19.91,6.53,5.38,1.59,7.71,2.17,7.71,4.49s-2.33,9.14-3.2,11.46a4.978,4.978,0,0,0-.44,1.88,1.928,1.928,0,0,0,1.89,1.89,3.565,3.565,0,0,0,1.31-.29C1082.59,3347.32,1086.23,3346.16,1087.83,3346.16Zm113.08,84.38c0,4.2-10.46,15.37-14.53,15.37-1.46,0-2.48-1.45-3.2-2.47a115.027,115.027,0,0,0-23.84-21.31,2.622,2.622,0,0,1-1.45-2.03c0-2.75,10.46-14.06,13.66-14.06C1174.46,3406.04,1200.91,3426.92,1200.91,3430.54Zm-893.024,83.94v14.64c0,39,19.623,68.73,51.742,87.43,1.309,0.72,2.618,1.59,2.618,3.04,0,5.66-9.3,16.53-14.39,16.53-4.8,0-22.237-16.38-26.015-20.3-8.722-9.13-17.151-20.73-21.948-32.47-0.436-1.02-1.161-2.32-2.47-2.32-1.164,0-1.744,1.3-2.034,2.32-5.958,14.64-17.734,28.7-29.651,39-3.488,3.04-16.423,13.63-20.348,13.63-5.087,0-14.244-11.31-14.244-16.1,0-1.59,1.454-2.46,3.053-3.33a108.185,108.185,0,0,0,34.883-31.03c12.352-16.82,16.421-37.26,16.421-57.85,0-5.8-.58-12.32-0.58-17.25,0-3.19,1.164-4.5,4.508-4.5,2.614,0,12.206.73,15.114,1.02,4.5,0.44,7.413.29,7.413,2.46,0,1.31-1.454,1.89-2.473,2.32A3.724,3.724,0,0,0,307.886,3514.48Zm96.953,13.34c0.726-2.76,1.455-5.51,1.89-7.83,0.436-2.76.581-4.06,2.47-4.06,1.309,0,15.26,5.07,21.512,7.83,2.9,1.3,3.778,2.17,3.778,2.9a1.377,1.377,0,0,1-1.018,1.16c-3.344,1.59-4.069,2.75-5.378,5.94-4.794,11.16-8.867,27.98-8.867,41.18,0,7.97,0,11.89,1.893,11.89,1.015,0,1.74-1.16,2.469-2.33,0.871-1.44,1.745-3.04,3.344-3.04,1.744,0,7.557,4.93,7.557,7.11,0,2.03-6.4,13.19-6.4,21.02,0,1.01.29,4.64,0.583,6.81a41.146,41.146,0,0,1,.436,4.21c0,5.36-10.757,9.57-15.261,9.57-2.763,0-4.072-1.89-6.686-7.11-7.123-14.35-9.3-30.59-9.3-46.54C397.861,3558.7,400.332,3544.92,404.839,3527.82Zm41.568,62.19c6.1,7.25,10.9,9.72,20.347,9.72a118.141,118.141,0,0,0,31.83-4.64,14.628,14.628,0,0,1,3.489-.58c1.889,0,2.762,1.89,2.908,3.19a142.991,142.991,0,0,1,.726,15.08c0,1.88-.146,2.9-2.035,3.77-5.088,2.46-29.36,4.64-35.9,4.64-23.4,0-33.723-11.6-33.723-14.94,0-2.75,7.268-17.39,10.611-17.39A2.9,2.9,0,0,1,446.407,3590.01Zm-0.291-62.77a29.473,29.473,0,0,1,4.5.58,106.4,106.4,0,0,0,19.188,2.03,89.364,89.364,0,0,0,21.509-2.9,12.861,12.861,0,0,1,2.908-.44c2.76,0,3.634,3.05,3.924,5.22a109.283,109.283,0,0,1,.87,11.89c0,3.48-.435,4.5-4.214,5.08a172.826,172.826,0,0,1-24.417,1.73c-4.359,0-24.417-.72-27.18-3.04-1.16-1.01-1.16-5.37-1.16-6.96C442.048,3529.7,442.628,3527.24,446.116,3527.24ZM574.75,3612.2c0,6.52.145,13.05,0.145,19.57,0,3.48-1.6,4.49-7.7,4.49H560.8c-7.123,0-8-1.45-8-4.78,0-6.52.293-12.9,0.293-19.28v-31.9c0-.87,0-2.9-1.309-2.9-0.873,0-1.744,1.16-2.324,1.74s-1.6,1.6-2.618,1.6c-1.89,0-4.94-4.64-5.959-6.24-1.6-2.61-4.943-7.97-4.943-11.02,0-2.03,1.6-3.77,2.909-5.36,11.916-13.92,22.527-32.91,27.47-50.46,0.435-1.3.871-3.19,2.76-3.19,1.6,0,10.465,3.48,15.26,5.22,1.019,0.44,1.889.73,2.328,0.88,1.306,0.57,4.5,1.73,4.5,3.33,0,0.87-1.016,2.03-2.615,2.32-1.163.14-1.744,0-3.488,3.91-2.618,5.95-8.577,19.58-11.627,24.65a1.544,1.544,0,0,0-.438,1.01c0,1.6,1.018,1.74,2.183,1.74s3.2,0.44,3.2,1.89a3.243,3.243,0,0,1-1.6,2.32c-1.889,1.16-2.034,1.74-2.034,7.68v52.78Zm37.353-5.66a4.139,4.139,0,0,0-.58,1.89c0,1.3.873,1.88,2.178,1.88,1.6,0,17.444-2.17,20.64-2.46,1.6-.15,4.652-0.29,4.652-2.46,0-1.02-4.214-10.44-4.943-12.04a10.13,10.13,0,0,1-1.16-3.34c0-3.91,14.531-7.68,15.694-7.68,1.891,0,2.909,1.45,3.78,3.05,3.633,7.54,6.977,15.22,10.172,23.05,1.164,3.04,6.977,18.56,6.977,20.73,0,3.19-3.923,4.5-8.137,6.09-2.18.73-6.978,2.61-9.157,2.61s-2.47-2.03-3.053-4.35c-1.6-5.94-1.745-7.97-4.94-7.97-0.293,0-3.2.43-7.706,1.01-14.1,2.03-43.747,5.8-49.124,6.38a2.752,2.752,0,0,0-2.035,1.74,3.107,3.107,0,0,1-2.47,1.74c-1.6,0-2.182-1.6-2.473-2.9-0.58-2.17-4.069-17.69-4.069-18.7,0-1.45,1.309-1.74,2.47-1.74h1.019c1.309,0,3.344-.15,4.213-0.15,2.764-.14,5.089-0.14,6.253-3.48,2.614-7.39,4.794-15.22,7.119-22.91,1.308-4.63,2.618-9.42,3.927-14.2a6.162,6.162,0,0,0,.435-1.74c0-1.6-1.309-2.18-2.763-2.18-5.084,0-10.027.44-15.115,0.44-3.779,0-4.069-1.74-4.069-6.09v-7.54c0-4.35.29-6.09,4.069-6.09,5.523,0,10.9.44,16.424,0.44h47.964c5.378,0,10.756-.44,16.279-0.44,3.924,0,4.214,1.88,4.214,6.67v6.52c0,4.64-.435,6.53-4.07,6.53-5.522,0-11.045-.44-16.423-0.44H627.218c-0.436,0-1.6,0-1.6.73a1.392,1.392,0,0,0,1.16,1.01,1.847,1.847,0,0,1,1.31,1.6c0,1.45-1.455,1.74-2.47,2.03-1.89.43-2.183,0.87-2.908,2.61C620.534,3583.35,614.721,3600.31,612.1,3606.54Zm27.325-95.69c4.943,0,9.882-.43,14.825-0.43,4.069,0,4.5,1.88,4.5,6.38v7.1c0,4.5-.29,6.24-4.359,6.24-5.088,0-10.027-.44-14.97-0.44H611.087c-4.8,0-9.737.44-14.535,0.44-4.5,0-4.8-1.89-4.8-7.25v-6.67c0-4.21.583-5.8,4.652-5.8,4.943,0,9.883.43,14.68,0.43h28.341Zm140.261,22.19c4.213,0,13.08,13.19,13.08,15.8,0,1.74-1.454,2.61-2.763,3.48-3.779,2.75-11.627,9.86-15.26,13.19-2.18,2.03-3.489,3.48-3.489,4.5,0,1.74,1.018,2.32,3.344,3.19,6.977,2.61,9.156,7.97,9.156,15.08a74.12,74.12,0,0,1-1.018,11.3,77.2,77.2,0,0,0-1.016,7.83c0,1.74.58,2.9,2.47,2.9,4.8,0,13.226-4.78,17.294-7.25a11.566,11.566,0,0,0,1.164-.72c2.325-1.45,5.669-3.48,7.7-3.48,1.454,0,1.744,1.45,1.89,2.61,0.434,2.75,1.018,11.74,1.018,14.5,0,5.07-.584,5.94-2.908,7.1-7.267,3.63-21.509,7.98-29.5,7.98-10.318,0-20.2-7.69-20.2-18.56,0-6.53,2.328-14.79,2.328-20.01,0-1.45-.584-2.9-2.328-2.9-11.481,0-32.41,32.33-36.333,37.26-2.471,3.19-3.924,5.22-5.234,5.22-3.924,0-17-10.15-17-15.08,0-1.59,1.744-3.77,7.413-8.41,3.633-3.04,17.878-18.27,24.417-25.51,5.667-6.38,11.48-12.62,17.294-18.85,0.729-.73,1.889-1.89,1.889-2.9a1.34,1.34,0,0,0-1.451-1.31c-0.583,0-8.721,2.47-10.175,2.9-2.9.73-10.756,3.05-13.371,3.05-1.454,0-2.618-.58-4.069-2.9-2.328-3.77-7.122-12.18-7.122-15.81,0-2.17,1.454-2.75,3.633-2.89,11.917-.73,25-3.34,36.773-5.8,1.306-.3,2.324-0.59,2.324-1.6s-0.729-1.45-2.034-1.88c-5.523-1.89-10.756-3.92-16.424-5.51-5.814-1.6-8.432-2.18-8.432-4.79,0-1.3,1.6-6.67,3.054-10.58,2.179-5.95,2.469-6.38,4.213-6.38a15.318,15.318,0,0,1,4.944,1.16c6.539,2.17,13.225,4.49,19.912,6.52,5.379,1.6,7.7,2.18,7.7,4.5s-2.324,9.13-3.2,11.45a4.989,4.989,0,0,0-.435,1.89,1.919,1.919,0,0,0,1.888,1.88,3.409,3.409,0,0,0,1.31-.29C774.455,3534.2,778.089,3533.04,779.689,3533.04Zm163.661-2.03a2.818,2.818,0,0,1-1.6,2.03c-6.1,3.77-12.646,9.71-17.878,14.64a3.791,3.791,0,0,0-1.307,2.61,3.233,3.233,0,0,0,3.341,3.05c0.438,0,1.019-.15,1.6-0.15a48.293,48.293,0,0,1,10.176,1.74c15.7,4.78,25.432,17.4,25.432,33.78,0,27.69-23.978,41.47-49.269,41.47-13.661,0-32.12-5.51-32.12-22.19,0-11.59,10.608-20.15,21.8-20.15a25.654,25.654,0,0,1,19.622,9.28c2.18,2.76,2.615,4.2,3.924,7.25a4.058,4.058,0,0,0,3.489,2.76c3.489,0,10.465-7.25,10.465-16.83,0-12.32-10.03-17.83-21.221-17.83-10.611,0-20.058,4.06-28.051,11.17a192.433,192.433,0,0,0-17.878,18.27c-2.035,2.6-3.2,3.62-3.779,3.62-3.341,0-14.677-11.89-14.677-14.64,0-1.74,1.451-3.05,4.5-5.37,3.634-2.9,27.76-26.82,32.849-31.75,2.76-2.76,4.939-5.36,7.412-8.12,1.016-1.01,2.035-1.89,2.035-3.33,0-1.74-2.329-2.03-2.909-2.03-0.435,0-16.278,2.89-20.058,3.47a6.846,6.846,0,0,1-1.744.15c-3.34,0-4.214-16.38-4.214-19.14v-1.45c0-2.17.435-2.17,4.653-2.17h3.34c9.45-.15,30.233-1.74,38.517-5.22,3.633-1.6,5.233-2.32,6.248-2.32C932.3,3513.61,943.35,3527.82,943.35,3531.01Zm-39.68,72.92c-2.325,0-4.649,1.31-4.649,3.92,0,3.91,4.942,5.8,8.282,5.8a3.427,3.427,0,0,0,3.634-3.19A7.233,7.233,0,0,0,903.67,3603.93Zm142.01,6.97a20.71,20.71,0,1,1-20.79-20.74A20.754,20.754,0,0,1,1045.68,3610.9Zm-33,0a12.285,12.285,0,1,0,12.21-12.19A12.271,12.271,0,0,0,1012.68,3610.9Z" transform="translate(-231 -3130)"/>
</svg>
