<svg xmlns="http://www.w3.org/2000/svg" xmlns:xlink="http://www.w3.org/1999/xlink" width="973" height="511" viewBox="0 0 973 511">
  <defs>
    <style>
      .cls-1 {
        fill: #0053a9;
        fill-rule: evenodd;
        filter: url(#filter);
      }
    </style>
    <filter id="filter" x="230" y="818" width="973" height="511" filterUnits="userSpaceOnUse">
      <feOffset result="offset" dy="1" in="SourceAlpha"/>
      <feGaussianBlur result="blur" stdDeviation="1.414"/>
      <feFlood result="flood" flood-color="#fff" flood-opacity="0.25"/>
      <feComposite result="composite" operator="in" in2="blur"/>
      <feBlend result="blend" in="SourceGraphic"/>
    </filter>
  </defs>
  <path id="txt-main.svg" class="cls-1" d="M336.084,831.48c5.524,0,10.9-.289,16.421-0.289,3.345,0,3.635,1.159,3.635,5.074v5.945c0,3.914-.29,5.074-3.486,5.074-5.523,0-11.046-.29-16.57-0.29H271.407c-4.36,0-6.249,2.03-6.249,3.044,0,0.871.435,1.015,2.615,1.015,3.344,0,6.684.291,10.173,0.291H324.31c4.362,0,8.576-.291,12.79-0.291,2.909,0,3.489,1.161,3.489,4.205v6.236c0,3.044-.58,4.2-3.343,4.2-4.36,0-8.574-.145-12.936-0.145H277.946c-4.36,0-8.573.145-12.936,0.145-3.34,0-3.34-1.74-3.34-5.364v-1.3c0-.87,0-2.61-1.309-2.61-0.874,0-1.6,1.015-2.18,1.74-2.035,2.319-10.611,11.309-13.371,11.309-2.327,0-13.809-6.38-13.809-10.294,0-1.45,2.179-2.755,3.633-4.059,10.027-8.12,21.074-22.328,25.581-34.361,0.581-1.452.871-2.755,2.325-2.755,2.18,0,14.97,3.478,18.024,4.2,1.454,0.436,4.5,1.015,4.5,2.61,0,1.3-2.035,1.886-3.05,2.175-1.309.435-3.779,1.45-3.779,3.19a1.37,1.37,0,0,0,1.6,1.3h56.249Zm-42.149,55.241c-0.436,0-2.325,0-2.325.869,0,0.724,7.993,4.785,9.156,5.364,1.451,0.725,5.814,2.754,5.814,4.494,0,1.162-1.31,1.6-2.324,1.6-2.039.145-2.473,0.145-3.49,2.174a93.26,93.26,0,0,1-4.942,8.119,6.415,6.415,0,0,0-1.6,3.481c0,2.174,3.053,4.2,4.652,5.218,2.615,1.74,8.719,6.09,11.046,7.975,1.016,0.87,2.18,1.74,2.18,3.335,0,2.608-4.943,14.932-11.046,14.932-1.745,0-3.2-1.449-4.507-2.609-5.085-4.2-10.173-8.7-13.081-11.019-1.451-1.159-2.325-1.6-3.489-1.6a3.577,3.577,0,0,0-2.615,1.45c-3.488,3.625-27.18,20.009-31.394,20.009-3.779,0-11.917-12.614-11.917-15.369,0-1.6,2.18-2.32,3.489-2.9,3.34-1.451,23.253-11.889,23.253-14.934,0-2.465-12.646-6.96-14.97-7.83-1.454-.434-3.343-1.159-3.343-2.9,0-2.754,8.285-12.9,11.046-12.9,2.908,0,14.244,5.51,17.3,7.105a7.13,7.13,0,0,0,3.779,1.449c2.179,0,3.634-2.755,4.795-4.785,1.018-1.74,3.923-6.669,3.923-8.409,0-2.173-2.034-2.318-3.633-2.318H262.54c-6.1,0-12.355.289-18.6,0.289-1.889,0-3.488-.581-3.488-3.914v-7.54c0-4.205.29-5.654,3.633-5.654,6.252,0,12.356.434,18.459,0.434h61.48c4.359,0,8.576-.289,12.79-0.289,5.814,0,6.978,1.885,6.978,7.395,0,5.073-.436,18.266-0.436,27.256a160.874,160.874,0,0,0,1.161,20.443c0.145,1.015.29,3.335,1.6,3.335,2.615,0,3.344-12.614,3.344-14.788,0.145-2.61,1.015-3.48,3.924-3.48,4.069,0,11.046,2.174,11.046,6.959a54.189,54.189,0,0,1-.581,6.525c-1.6,11.453-4.942,27.546-19.622,27.546-9.447,0-14.68-5.365-17.44-13.919-4.508-13.483-4.942-30.881-4.942-45.089v-1.161a4.044,4.044,0,0,0-4.07-4.348H293.935ZM493.5,857.288c6.976,7.105,10.465,17.254,10.465,27.112,0,14.355-7.122,27.258-18.023,36.391-7.7,6.379-16.714,10.585-26.6,13.774-5.233,1.739-17.878,4.93-22.963,4.93-3.344,0-4.652-2.465-5.958-5.075-1.454-3.044-4.507-10.728-4.507-13.774s3.2-3.479,5.377-3.624c18.314-1.16,49.418-10.15,49.418-32.767,0-10.874-8.286-16.237-18.314-16.237-19.332,0-40.4,10.583-56.975,19.717a8.14,8.14,0,0,1-4.214,1.449c-6.4,0-15.117-15.223-15.117-21.021,0-2.03,1.89-2.611,3.634-3.191,12.792-3.77,25.434-8.265,38.225-12.613,11.046-3.77,22.092-6.67,33.864-6.67C473.442,845.689,485.068,848.734,493.5,857.288Zm14.824-9.568c0,2.463-6.828,8.264-8.428,8.264a2.214,2.214,0,0,1-1.6-.87,151.509,151.509,0,0,0-11.627-12.034c-1.019-.87-1.454-1.451-1.454-2.029,0-2.031,7.413-7.685,8.867-7.685C495.386,833.366,508.321,845.4,508.321,847.72Zm1.89-25.808c2.182,1.74,12.355,10.728,12.355,12.9,0,2.61-6.539,8.553-8.283,8.553-0.583,0-1.019-.434-2.183-1.74-4.069-4.494-6.974-7.249-11.336-11.308-1.016-.87-1.306-1.3-1.306-1.885,0-1.884,7.268-7.683,8.863-7.683C508.76,820.753,509.2,821.042,510.211,821.912Zm93.028,7.829c1.6,4.93,2.615,5.654,4.5,5.654,1.309,0,5.378-2.029,8.138-3.479,2.328-1.305,4.073-2.031,5.379-2.031,3.2,0,8.575,12.034,8.575,15.515,0,2.32-1.889,3.479-3.633,4.494a73.556,73.556,0,0,1-9.012,4.35c-1.163.434-3.053,1.159-3.053,2.463,0,0.871.584,2.9,2.183,2.9,2.9,0,12.061-5.51,14.825-7.25a10.314,10.314,0,0,1,4.5-1.885c2.18,0,3.924,2.9,5.378,5.219,2.47,3.916,4.943,7.83,4.943,10.294,0,2.32-2.763,3.769-7.851,6.09-3.05,1.449-6.249,2.9-9.3,4.2-1.744.724-2.9,1.74-2.9,3.624,0,1.161.581,2.32,1.744,4.5a117.213,117.213,0,0,0,11.192,17.688c1.6,1.885,4.069,4.784,4.069,7.394,0,3.915-11.772,12.325-15.551,12.325-1.309,0-2.183-.725-4.072-2.61-5.668-5.364-14.825-8.989-23.834-8.989-4.217,0-10.9,1.3-10.9,6.669,0,7.974,13.226,9.279,19.04,9.279a93.392,93.392,0,0,0,9.591-.726c1.6-.145,4.07-0.434,4.8-0.434,3.489,0,4.214,2.319,4.214,8.409,0,13.774-2.47,13.919-6.832,13.919-7.7,0-15.7,0-23.252-1.306-15.116-2.753-28.2-11.743-28.2-28.416,0-17.544,13.806-25.953,29.941-25.953a47.773,47.773,0,0,1,7.847.726h0.581a2.193,2.193,0,0,0,2.179-2.03,9.921,9.921,0,0,0-1.6-3.335,3.533,3.533,0,0,0-3.053-2.03,8.357,8.357,0,0,0-1.454.29c-8.284,2.465-29.36,6.524-37.789,6.524-2.618,0-3.488-1.6-4.362-4.2-1.306-3.769-2.76-9.714-2.76-13.629,0-2.029.581-3.044,6.54-3.335,6.686-.29,23.4-1.885,29.649-3.769a2.179,2.179,0,0,0,1.889-2.175c0-1.159-1.015-2.61-2.179-2.61a16.18,16.18,0,0,0-1.89.436c-4.359,1.015-14.1,2.755-18.313,2.755-2.47,0-3.195-1.451-4.069-3.625-1.161-2.9-3.343-10-3.343-12.9,0-2.176,1.309-3.769,5.232-3.914,2.18-.146,6.107-0.436,9.013-0.87,2.614-.436,4.213-1.305,4.213-3.48,0-1.16-1.306-3.19-2.035-4.35-0.871-1.3-3.049-4.64-3.049-6.235,0-2.319,4.5-3.623,6.393-4.2,3.2-1.014,8.721-2.755,11.917-2.755C601.2,822.926,601.785,825.1,603.239,829.741ZM738.7,931.665c0,4.205-10.466,15.369-14.535,15.369-1.454,0-2.473-1.451-3.2-2.464a114.986,114.986,0,0,0-23.837-21.314,2.62,2.62,0,0,1-1.454-2.03c0-2.754,10.466-14.062,13.664-14.062C712.248,907.164,738.7,928.04,738.7,931.665ZM288.266,1020.39c1.89,0.57,3.344,1.16,3.344,2.02a1.377,1.377,0,0,1-1.019,1.17c-2.615,1.45-2.906,4.05-3.344,6.67-3.485,17.83-4.649,36.1-4.649,54.22,0,11.31,0,23.2,11.627,23.2,9.156,0,17.878-5.37,23.4-12.33a46.668,46.668,0,0,0,9.3-21.16c0.435-2.76,1.016-5.37,3.488-5.37,3.2,0,7.559,3.91,9.883,5.94,2.615,2.33,6.977,6.24,6.977,9.87,0,4.34-4.072,13.91-6.252,17.83-9.3,17.11-25.726,28.42-45.635,28.42-10.321,0-21.367-3.48-28.051-11.89-7.268-9.28-8.141-24.65-8.141-36.25,0-16.67,1.454-33.35,2.618-50.16,0.29-3.34.435-7.98,0.435-11.31,0-3.19,0-5.08,2.47-5.08C267.338,1016.18,284.2,1019.23,288.266,1020.39Zm27.906,10.58c2.034,1.88,11.337,11.16,11.337,13.48,0,2.61-7.123,7.98-8.722,7.98-0.871,0-1.745-1.16-2.179-1.89-3.2-4.06-6.685-7.83-10.174-11.6-0.582-.58-1.453-1.45-1.453-2.17,0-2.18,7.7-7.25,9.156-7.25C314.863,1029.52,315.737,1030.54,316.172,1030.97Zm16.134-12.32c1.744,1.59,3.634,3.62,5.669,5.79,3.194,3.48,5.958,6.82,5.958,7.98,0,2.46-6.977,7.97-8.577,7.97-0.436,0-1.161-.43-2.18-1.74a124.422,124.422,0,0,0-10.465-11.59,4.031,4.031,0,0,1-1.451-2.18c0-2.32,7.7-7.25,9.156-7.25A3.089,3.089,0,0,1,332.306,1018.65Zm160.9,61.76c0,18.56-13.081,30.59-29.36,36.97-5.375,2.18-17.439,5.95-22.962,5.95-2.76,0-3.924-1.74-5.089-3.92-1.306-2.61-3.633-8.7-3.633-11.6,0-2.32,2.327-3.04,5.523-3.33,13.374-1.31,36.192-7.4,36.192-24.22,0-7.83-6.1-11.45-13.226-11.45-12.935,0-30.524,7.39-41.57,14.06a11.458,11.458,0,0,1-5.375,1.89c-4.943,0-12.065-11.89-12.065-16.53,0-2.46,1.745-2.9,6.1-4.06,2.763-.72,7.7-2.61,10.61-3.62,12.356-4.35,28.78-10.44,41.861-10.44C478.671,1050.11,493.206,1060.98,493.206,1080.41Zm125.584-68.43c2.47,2.61,4.942,5.21,7.412,7.68l1.6,1.6c2.9,3.04,8.429,8.69,8.429,10.29,0,0.87-.871,1.02-2.615,1.02a5.4,5.4,0,0,0-3.634,1.45c-6.249,4.63-12.065,9.27-18.169,14.2q-10.024,8.265-19.619,16.97c-1.309,1.3-2.763,2.75-2.763,4.78,0,2.46,3.488,6.23,5.959,8.85a12.693,12.693,0,0,0,1.309,1.44c8.137,8.12,16.714,15.81,25.29,23.49,4.649,4.06,11.917,10.73,11.917,13.78,0,4.49-13.081,16.67-17.149,16.67-0.875,0-2.619-1.3-4.508-3.62-7.7-9.58-18.456-20.16-28.486-30.16-5.233-5.22-11.917-11.89-16.134-17.55-3.2-4.34-5.085-8.55-5.085-13.91a18.185,18.185,0,0,1,3.343-10.88c3.924-5.65,14.387-13.34,20.2-18.26,9.447-7.98,20.2-17.12,27.615-26.97,0.729-1.02,1.455-2.18,2.619-2.18A3.769,3.769,0,0,1,618.79,1011.98Zm127.179,12.17c2.035,0.88,2.76,1.46,2.76,2.47,0,0.87-.435,1.01-1.164,1.3-3.634,1.6-5.084,5.22-6.393,8.56-2.325,5.94-4.653,15.22-4.653,21.6,0,0.87,0,2.47,1.309,2.47,0.874,0,1.455-.73,2.325-2.76,0.728-1.59,1.6-3.48,3.2-3.48,1.453,0,8.138,4.21,8.138,6.53a7.6,7.6,0,0,1-.581,2.46c-3.344,8.12-8.722,21.32-8.722,29.58v3.62c0,3.34-3.049,4.79-5.813,5.8a25.2,25.2,0,0,1-8.574,1.89c-4.507,0-5.813-3.34-6.977-6.82-3.343-10.15-4.942-23.92-4.942-34.65,0-9.57,1.164-22.47,3.488-31.89,0.874-3.77,1.89-7.69,2.764-11.6,0.58-2.47.87-4.21,2.18-4.21C727.073,1015.02,740.153,1021.69,745.969,1024.15Zm34.59-10.58c3.2-.58,7.848-1.74,11.047-1.74,2.763,0,3.343,1.02,4.213,4.64,3.2,12.9,4.653,30.74,4.653,44.22,0,24.94-4.214,46.4-22.093,65.1-2.762,2.9-8.866,9.13-12.935,9.13-2.325,0-6.543-3.91-8.283-5.51-3.634-3.33-6.687-6.08-6.687-8.55,0-.87.58-1.6,2.469-2.9a53.942,53.942,0,0,0,18.75-21.6c4.942-10.59,6.106-21.75,6.106-33.2a181.327,181.327,0,0,0-5.378-43.21,10.851,10.851,0,0,1-.146-2.17C772.275,1015.46,774.166,1014.88,780.559,1013.57Zm125.584,73.07c-0.875,0-2.908,0-2.908,1.31,0,0.87.583,1.16,1.744,1.16h35.172c4.5,0,9.012-.15,13.516-0.15s9.886,0.44,9.886,6.09c0,3.19-1.89,9.28-3.343,13.34-3.2,9.28-4.943,13.78-9.592,20.01a22.066,22.066,0,0,1-11.63,7.39c-3.2.87-11.192,1.45-15.115,1.45-3.05,0-7.993-.14-7.993-14.06,0-3.19.726-4.64,3.2-4.64s4.794,0.72,7.992.72a14.957,14.957,0,0,0,7.122-1.44c2.325-1.31,4.8-5.95,4.8-8.56,0-2.17-1.451-2.46-4.07-2.46H900.475c-3.054,0-3.925,2.17-4.8,4.49-3.489,8.7-4.07,9.57-6.539,9.57-3.053,0-9.741-2.03-12.791-3.19-1.744-.73-3.343-1.88-3.343-4.06a5.326,5.326,0,0,1,.725-2.46c1.164-2.18,5.233-11.17,5.233-13.2,0-.58-0.145-0.87-0.725-0.87a11.574,11.574,0,0,0-3.779,1.31c-3.343,1.45-14.1,6.38-17.3,6.38-5.085,0-9.447-11.02-9.447-14.79,0-2.32,1.744-2.76,5.524-3.77,0.728-.29,1.6-0.44,2.472-0.73,6.539-1.88,19.91-6.23,25.578-9.28a5.109,5.109,0,0,0,2.618-3.18,11.8,11.8,0,0,0,.145-2.18c0.145-1.88.145-3.19,2.76-3.19,1.164,0,3.634.29,4.8,0.44a18.24,18.24,0,0,0,2.76.14c3.928,0,12.066-5.94,12.066-6.81,0-.73-1.165-0.87-1.6-0.87H869.66c-6.1,0-12.207.43-18.458,0.43-3.2,0-3.489-1.59-3.489-5.94v-6.38c0-4.21.293-5.66,3.633-5.66,6.107,0,12.211.29,18.314,0.29h20.494a3.527,3.527,0,0,0,3.488-3.47v-0.44a3.529,3.529,0,0,0-3.488-3.48h-9.012c-4.5,0-9.157.29-13.662,0.29-3.2,0-3.633-1.74-3.633-5.07v-6.38c0-3.48.725-4.93,3.633-4.93,4.5,0,9.158.29,13.662,0.29h8.286c2.035,0,4.069-1.31,4.069-4.79,0-1.3-.145-3.33-0.29-4.78a3.615,3.615,0,0,1-.145-1.31c0-1.88,1.454-2.17,3.05-2.17,3.489,0,14.39.72,18.458,1.01,1.454,0.15,4.07-.14,4.07,2.18,0,1.01-.725,1.45-1.6,2.32a5.035,5.035,0,0,0-1.163,3.48c0,2.89,1.889,4.06,4.5,4.06,3.927,0,7.706-.29,11.629-0.29,3.489,0,3.78,1.45,3.78,5.36v5.51c0,3.63-.291,5.51-3.489,5.51-4.653,0-9.157-.29-13.809-0.29h-1.306a1.738,1.738,0,0,0-1.454,1.74v2.18a3.527,3.527,0,0,0,3.489,3.47h6.393c2.473,0,4.217-1.45,5.813-3.33,5.088-5.8,13.519-16.96,16.86-23.92,0.439-1.02.873-2.32,2.328-2.32,1.3,0,4.649,1.74,7.122,3.04,0.87,0.43,1.6.87,2.179,1.16s1.306,0.58,2.035,1.01c3.633,1.75,8.428,4.21,8.428,5.95,0,1.3-1.306,1.89-2.47,2.18-2.325.43-3.344,1.88-5.958,5.36-1.164,1.6-2.618,3.63-4.653,6.09-0.725.72-2.324,2.61-2.324,3.48,0,1.16.87,1.3,3.633,1.3,4.8,0,9.593-.29,14.535-0.29,3.344,0,3.634,1.45,3.634,5.66v6.38c0,4.35-.29,5.94-3.489,5.94-6.249,0-12.355-.43-18.6-0.43H939.281c-3.053,0-4.072.72-7.268,3.48-1.018.87-2.327,1.88-3.923,3.18-0.439.44-1.745,1.31-1.745,2.04a0.587,0.587,0,0,0,.726.58c1.309,0,11.191-3.48,13.226-4.06a8,8,0,0,1,2.763-1.02c1.889,0,3.05,1.6,7.267,6.82,1.162,1.45,2.47,3.04,4.069,5.07,0.726,1.01,2.47,2.9,2.47,4.06a1.371,1.371,0,0,1-1.454,1.45,27.732,27.732,0,0,1-4.794-.87,6.108,6.108,0,0,0-1.745-.29,27.272,27.272,0,0,0-3.343.43C932.449,1083.89,919.368,1085.48,906.143,1086.64Zm181.687-52.48c4.21,0,13.08,13.19,13.08,15.8,0,1.74-1.46,2.61-2.77,3.48-3.77,2.76-11.62,9.86-15.25,13.2-2.18,2.03-3.49,3.48-3.49,4.49,0,1.74,1.01,2.32,3.34,3.19,6.98,2.61,9.16,7.98,9.16,15.08a74.521,74.521,0,0,1-1.02,11.31,77.15,77.15,0,0,0-1.02,7.83c0,1.74.58,2.9,2.47,2.9,4.8,0,13.23-4.79,17.3-7.25,0.29-.15.73-0.44,1.16-0.73,2.33-1.45,5.67-3.48,7.7-3.48,1.46,0,1.75,1.45,1.89,2.61,0.44,2.76,1.02,11.75,1.02,14.5,0,5.08-.58,5.95-2.91,7.1-7.26,3.63-21.51,7.98-29.5,7.98-10.32,0-20.2-7.69-20.2-18.56,0-6.52,2.32-14.79,2.32-20.01,0-1.45-.58-2.9-2.32-2.9-11.49,0-32.41,32.34-36.34,37.26-2.47,3.19-3.92,5.22-5.23,5.22-3.92,0-17.01-10.14-17.01-15.07,0-1.6,1.75-3.77,7.42-8.41,3.63-3.05,17.87-18.27,24.41-25.52,5.67-6.38,11.48-12.61,17.3-18.85,0.73-.72,1.89-1.88,1.89-2.9a1.332,1.332,0,0,0-1.45-1.3c-0.59,0-8.72,2.46-10.18,2.9-2.9.72-10.76,3.04-13.37,3.04-1.45,0-2.62-.58-4.07-2.9-2.33-3.77-7.12-12.18-7.12-15.8,0-2.18,1.45-2.76,3.63-2.9,11.92-.73,25-3.34,36.78-5.8,1.3-.29,2.32-0.58,2.32-1.59s-0.73-1.46-2.04-1.89c-5.52-1.88-10.75-3.91-16.42-5.51-5.81-1.59-8.43-2.17-8.43-4.78,0-1.31,1.6-6.67,3.05-10.59,2.18-5.94,2.47-6.38,4.22-6.38a15.3,15.3,0,0,1,4.94,1.16c6.54,2.18,13.23,4.5,19.91,6.53,5.38,1.59,7.71,2.17,7.71,4.49s-2.33,9.14-3.2,11.46a4.978,4.978,0,0,0-.44,1.88,1.928,1.928,0,0,0,1.89,1.89,3.565,3.565,0,0,0,1.31-.29C1082.59,1035.32,1086.23,1034.16,1087.83,1034.16Zm113.08,84.38c0,4.2-10.46,15.37-14.53,15.37-1.46,0-2.48-1.45-3.2-2.47a115.027,115.027,0,0,0-23.84-21.31,2.622,2.622,0,0,1-1.45-2.03c0-2.75,10.46-14.06,13.66-14.06C1174.46,1094.04,1200.91,1114.92,1200.91,1118.54Zm-893.024,83.94v14.64c0,39,19.623,68.73,51.742,87.43,1.309,0.72,2.618,1.59,2.618,3.04,0,5.66-9.3,16.53-14.39,16.53-4.8,0-22.237-16.38-26.015-20.3-8.722-9.13-17.151-20.73-21.948-32.47-0.436-1.02-1.161-2.32-2.47-2.32-1.164,0-1.744,1.3-2.034,2.32-5.958,14.64-17.734,28.7-29.651,39-3.488,3.04-16.423,13.63-20.348,13.63-5.087,0-14.244-11.31-14.244-16.1,0-1.59,1.454-2.46,3.053-3.33a108.185,108.185,0,0,0,34.883-31.03c12.352-16.82,16.421-37.26,16.421-57.85,0-5.8-.58-12.32-0.58-17.25,0-3.19,1.164-4.5,4.508-4.5,2.614,0,12.206.73,15.114,1.02,4.5,0.44,7.413.29,7.413,2.46,0,1.31-1.454,1.89-2.473,2.32A3.724,3.724,0,0,0,307.886,1202.48Zm96.953,13.34c0.726-2.76,1.455-5.51,1.89-7.83,0.436-2.76.581-4.06,2.47-4.06,1.309,0,15.26,5.07,21.512,7.83,2.9,1.3,3.778,2.17,3.778,2.9a1.377,1.377,0,0,1-1.018,1.16c-3.344,1.59-4.069,2.75-5.378,5.94-4.794,11.17-8.867,27.98-8.867,41.18,0,7.97,0,11.89,1.893,11.89,1.015,0,1.74-1.16,2.469-2.32,0.871-1.45,1.745-3.05,3.344-3.05,1.744,0,7.557,4.93,7.557,7.11,0,2.03-6.4,13.19-6.4,21.02,0,1.01.29,4.64,0.583,6.81a41.146,41.146,0,0,1,.436,4.21c0,5.36-10.757,9.57-15.261,9.57-2.763,0-4.072-1.89-6.686-7.11-7.123-14.35-9.3-30.59-9.3-46.54C397.861,1246.7,400.332,1232.93,404.839,1215.82Zm41.568,62.19c6.1,7.25,10.9,9.72,20.347,9.72a118.141,118.141,0,0,0,31.83-4.64,14.628,14.628,0,0,1,3.489-.58c1.889,0,2.762,1.89,2.908,3.19a142.991,142.991,0,0,1,.726,15.08c0,1.88-.146,2.9-2.035,3.77-5.088,2.46-29.36,4.64-35.9,4.64-23.4,0-33.723-11.6-33.723-14.94,0-2.75,7.268-17.39,10.611-17.39A2.9,2.9,0,0,1,446.407,1278.01Zm-0.291-62.77a29.473,29.473,0,0,1,4.5.58,106.4,106.4,0,0,0,19.188,2.03,89.364,89.364,0,0,0,21.509-2.9,12.861,12.861,0,0,1,2.908-.44c2.76,0,3.634,3.05,3.924,5.22a109.283,109.283,0,0,1,.87,11.89c0,3.48-.435,4.5-4.214,5.07a171.368,171.368,0,0,1-24.417,1.74c-4.359,0-24.417-.72-27.18-3.04-1.16-1.01-1.16-5.37-1.16-6.96C442.048,1217.7,442.628,1215.24,446.116,1215.24ZM574.75,1300.2c0,6.52.145,13.05,0.145,19.57,0,3.48-1.6,4.49-7.7,4.49H560.8c-7.123,0-8-1.45-8-4.78,0-6.52.293-12.9,0.293-19.28v-31.9c0-.87,0-2.9-1.309-2.9-0.873,0-1.744,1.16-2.324,1.74s-1.6,1.6-2.618,1.6c-1.89,0-4.94-4.64-5.959-6.24-1.6-2.61-4.943-7.97-4.943-11.02,0-2.03,1.6-3.77,2.909-5.36,11.916-13.92,22.527-32.91,27.47-50.46,0.435-1.3.871-3.19,2.76-3.19,1.6,0,10.465,3.48,15.26,5.22,1.019,0.44,1.889.73,2.328,0.88,1.306,0.57,4.5,1.73,4.5,3.33,0,0.87-1.016,2.03-2.615,2.32-1.163.14-1.744,0-3.488,3.91-2.618,5.95-8.577,19.58-11.627,24.65a1.544,1.544,0,0,0-.438,1.01c0,1.6,1.018,1.74,2.183,1.74s3.2,0.44,3.2,1.89a3.243,3.243,0,0,1-1.6,2.32c-1.889,1.16-2.034,1.74-2.034,7.68v52.78Zm37.353-5.66a4.139,4.139,0,0,0-.58,1.89c0,1.3.873,1.88,2.178,1.88,1.6,0,17.444-2.17,20.64-2.46,1.6-.15,4.652-0.29,4.652-2.46,0-1.02-4.214-10.44-4.943-12.04a10.13,10.13,0,0,1-1.16-3.34c0-3.91,14.531-7.68,15.694-7.68,1.891,0,2.909,1.45,3.78,3.05,3.633,7.54,6.977,15.22,10.172,23.05,1.164,3.04,6.977,18.56,6.977,20.73,0,3.19-3.923,4.5-8.137,6.09-2.18.73-6.978,2.61-9.157,2.61s-2.47-2.03-3.053-4.35c-1.6-5.94-1.745-7.97-4.94-7.97-0.293,0-3.2.43-7.706,1.01-14.1,2.03-43.747,5.8-49.124,6.38a2.752,2.752,0,0,0-2.035,1.74,3.107,3.107,0,0,1-2.47,1.74c-1.6,0-2.182-1.6-2.473-2.9-0.58-2.17-4.069-17.69-4.069-18.7,0-1.45,1.309-1.74,2.47-1.74h1.019c1.309,0,3.344-.15,4.213-0.15,2.764-.14,5.089-0.14,6.253-3.48,2.614-7.39,4.794-15.22,7.119-22.91,1.308-4.63,2.618-9.42,3.927-14.2a6.162,6.162,0,0,0,.435-1.74c0-1.6-1.309-2.18-2.763-2.18-5.084,0-10.027.44-15.115,0.44-3.779,0-4.069-1.74-4.069-6.09v-7.54c0-4.35.29-6.09,4.069-6.09,5.523,0,10.9.44,16.424,0.44h47.964c5.378,0,10.756-.44,16.279-0.44,3.924,0,4.214,1.88,4.214,6.67v6.52c0,4.64-.435,6.53-4.07,6.53-5.522,0-11.045-.44-16.423-0.44H627.218c-0.436,0-1.6,0-1.6.73a1.392,1.392,0,0,0,1.16,1.01,1.847,1.847,0,0,1,1.31,1.6c0,1.45-1.455,1.74-2.47,2.03-1.89.43-2.183,0.87-2.908,2.61C620.534,1271.35,614.721,1288.31,612.1,1294.54Zm27.325-95.68c4.943,0,9.882-.44,14.825-0.44,4.069,0,4.5,1.88,4.5,6.38v7.1c0,4.5-.29,6.24-4.359,6.24-5.088,0-10.027-.44-14.97-0.44H611.087c-4.8,0-9.737.44-14.535,0.44-4.5,0-4.8-1.89-4.8-7.25v-6.67c0-4.21.583-5.8,4.652-5.8,4.943,0,9.883.44,14.68,0.44h28.341Zm140.261,22.18c4.213,0,13.08,13.19,13.08,15.8,0,1.74-1.454,2.61-2.763,3.48-3.779,2.75-11.627,9.86-15.26,13.19-2.18,2.03-3.489,3.48-3.489,4.5,0,1.74,1.018,2.32,3.344,3.19,6.977,2.61,9.156,7.97,9.156,15.07a74.135,74.135,0,0,1-1.018,11.31,77.2,77.2,0,0,0-1.016,7.83c0,1.74.58,2.9,2.47,2.9,4.8,0,13.226-4.78,17.294-7.25a11.566,11.566,0,0,0,1.164-.72c2.325-1.45,5.669-3.48,7.7-3.48,1.454,0,1.744,1.45,1.89,2.61,0.434,2.75,1.018,11.74,1.018,14.5,0,5.07-.584,5.94-2.908,7.1-7.267,3.63-21.509,7.97-29.5,7.97-10.318,0-20.2-7.68-20.2-18.55,0-6.53,2.328-14.79,2.328-20.01,0-1.45-.584-2.9-2.328-2.9-11.481,0-32.41,32.33-36.333,37.26-2.471,3.19-3.924,5.22-5.234,5.22-3.924,0-17-10.15-17-15.08,0-1.59,1.744-3.77,7.413-8.41,3.633-3.04,17.878-18.27,24.417-25.51,5.667-6.38,11.48-12.62,17.294-18.85,0.729-.73,1.889-1.89,1.889-2.9a1.34,1.34,0,0,0-1.451-1.31c-0.583,0-8.721,2.47-10.175,2.9-2.9.73-10.756,3.05-13.371,3.05-1.454,0-2.618-.58-4.069-2.9-2.328-3.77-7.122-12.18-7.122-15.81,0-2.17,1.454-2.75,3.633-2.89,11.917-.73,25-3.34,36.773-5.8,1.306-.3,2.324-0.59,2.324-1.6s-0.729-1.45-2.034-1.88c-5.523-1.89-10.756-3.92-16.424-5.51-5.814-1.6-8.432-2.18-8.432-4.79,0-1.3,1.6-6.67,3.054-10.58,2.179-5.95,2.469-6.38,4.213-6.38a15.318,15.318,0,0,1,4.944,1.16c6.539,2.17,13.225,4.49,19.912,6.52,5.379,1.6,7.7,2.18,7.7,4.5s-2.324,9.13-3.2,11.45a4.989,4.989,0,0,0-.435,1.89,1.919,1.919,0,0,0,1.888,1.88,3.409,3.409,0,0,0,1.31-.29C774.455,1222.2,778.089,1221.04,779.689,1221.04Zm163.661-2.03a2.818,2.818,0,0,1-1.6,2.03c-6.1,3.77-12.646,9.71-17.878,14.64a3.771,3.771,0,0,0-1.307,2.61,3.233,3.233,0,0,0,3.341,3.05c0.438,0,1.019-.15,1.6-0.15a48.293,48.293,0,0,1,10.176,1.74c15.7,4.78,25.432,17.4,25.432,33.78,0,27.69-23.978,41.47-49.269,41.47-13.661,0-32.12-5.51-32.12-22.19,0-11.59,10.608-20.15,21.8-20.15a25.654,25.654,0,0,1,19.622,9.28c2.18,2.76,2.615,4.2,3.924,7.25a4.058,4.058,0,0,0,3.489,2.76c3.489,0,10.465-7.25,10.465-16.83,0-12.32-10.03-17.83-21.221-17.83-10.611,0-20.058,4.06-28.051,11.17a192.33,192.33,0,0,0-17.878,18.26c-2.035,2.61-3.2,3.63-3.779,3.63-3.341,0-14.677-11.89-14.677-14.64,0-1.74,1.451-3.05,4.5-5.37,3.634-2.9,27.76-26.82,32.849-31.75,2.76-2.76,4.939-5.37,7.412-8.12,1.016-1.01,2.035-1.89,2.035-3.33,0-1.74-2.329-2.03-2.909-2.03-0.435,0-16.278,2.89-20.058,3.47a6.846,6.846,0,0,1-1.744.15c-3.34,0-4.214-16.38-4.214-19.14v-1.45c0-2.17.435-2.17,4.653-2.17h3.34c9.45-.15,30.233-1.74,38.517-5.22,3.633-1.6,5.233-2.32,6.248-2.32C932.3,1201.61,943.35,1215.82,943.35,1219.01Zm-39.68,72.92c-2.325,0-4.649,1.31-4.649,3.92,0,3.91,4.942,5.8,8.282,5.8a3.427,3.427,0,0,0,3.634-3.19A7.233,7.233,0,0,0,903.67,1291.93Zm142.01,6.96a20.71,20.71,0,1,1-20.79-20.73A20.756,20.756,0,0,1,1045.68,1298.89Zm-33,0a12.285,12.285,0,1,0,12.21-12.18A12.273,12.273,0,0,0,1012.68,1298.89Z" transform="translate(-230 -818)"/>
</svg>
