<svg xmlns="http://www.w3.org/2000/svg" width="512" height="512" viewBox="0 0 512 512" style="width:256px;height:256px">
  <path d="M399.951 207.465c-5.266 0-10.458.886-15.383 2.539-.074.023-.152.031-.23.054-4.351-21.5-23.785-37.758-47.031-37.758-5.262 0-10.453.886-15.375 2.539-.078.023-.156.031-.234.054-4.355-21.496-23.789-37.758-47.031-37.758-4.539 0-9 .734-13.301 1.965-.477.117-.949.172-1.422.305v-92.52C259.943 21.031 238.435 0 211.994 0c-26.434 0-47.941 21.031-47.941 46.886V151.77l-.137 89.23c-1.141-1.871-2.329-3.789-3.566-5.766-15.434-24.641-41.024-33.383-58.246-33.383-4.981 0-9.414.684-13.176 2.032-10.469 3.742-18.042 10.445-21.906 19.382-4.793 11.086-3.667 24.91 3.348 41.094 3.766 9.84 65.242 169.051 112.5 207.699 5.672 4.637 11.539 9.438 18.258 13.699C228.049 502.926 260.275 512 294.322 512c32.809 0 63.926-8.426 90.234-24.402h1.566l2.922-1.91c6.484-4.238 12.598-8.961 18.141-14.015 9.859-8.926 18.171-19.043 24.722-30.106 3.394-5.778 6.297-11.809 8.625-17.922 2.39-6.278 4.222-12.754 5.446-19.258.809-4.304 1.359-8.602 1.648-12.804.106-1.653.184-3.329.234-5 .031-.922.031-1.821.031-2.715v-129.52c.001-25.852-21.495-46.883-47.94-46.883zm24.5 176.402c0 .649.003 1.301-.02 1.981-.043 1.418-.11 2.832-.195 4.183-.222 3.25-.656 6.621-1.297 10.023-.969 5.137-2.414 10.27-4.313 15.25-1.867 4.89-4.195 9.73-6.91 14.347-5.332 9.008-12.149 17.298-20.294 24.668-3.832 3.493-7.984 6.794-12.367 9.836h-1.266l-2.882 1.836c-23.149 14.766-51.016 22.566-80.586 22.566s-57.441-7.801-80.613-22.578c-5.551-3.528-10.867-7.871-16.004-12.07-35.621-29.137-88.258-152.926-105.535-198.164l-.207-.508c-4.285-9.817-5.5-17.871-3.426-22.672.465-1.066 1.867-4.316 8.289-6.614.43-.152 2.09-.66 5.278-.66 11.234 0 28.031 5.863 38.379 22.387 17.277 27.578 24.426 44.266 24.492 44.418l11.68 27.691 10.679 25.695v-.382l.16.379V46.886c0-12.926 10.993-23.441 24.5-23.441 13.512 0 24.508 10.515 24.508 23.441v82.715l-.117 59.512.117-.122v.23l20.176-21.015c4.718-4.918 11.106-7.629 17.988-7.629 13.508 0 24.5 10.519 24.5 23.445v23.481l-.113 16.774.113-.122v.23l20.18-21.019c4.718-4.914 11.098-7.625 17.961-7.625 13.512 0 24.5 10.515 24.5 23.441v23.336l-.114 16.91.114-.121v.234l20.176-21.012c4.722-4.918 11.105-7.625 17.988-7.625 13.5 0 24.481 10.515 24.481 23.442v129.521z" fill="#2c4a70"/>
</svg>
